<?xml version="1.0" encoding="UTF-8"?>
<svg width="400px" height="400px" viewBox="0 0 400 400" version="1.1" xmlns="http://www.w3.org/2000/svg" xmlns:xlink="http://www.w3.org/1999/xlink">
    <!-- Generator: Sketch 55.2 (78181) - https://sketchapp.com -->
    <title>pattern_2</title>
    <desc>Created with Sketch.</desc>
    <rect width="400" height="400" fill="#000000" />
    <g id="pattern_2" stroke="none" stroke-width="1" fill="none" fill-rule="evenodd">
        <g id="Group-98" transform="translate(-10.000000, -10.000000)" fill="#ffffff">
            <path d="M468.8359,68.2332 L465.3009,64.6982 L479.1139,50.8842 L482.6489,54.4202 L468.8359,68.2332 Z M441.2079,95.8612 L437.6729,92.3262 L451.4869,78.5112 L455.0229,82.0462 L441.2079,95.8612 Z M413.5799,123.4892 L410.0449,119.9542 L423.8589,106.1392 L427.3949,109.6742 L413.5799,123.4892 Z M385.9529,151.1162 L382.4179,147.5812 L396.2319,133.7672 L399.7669,137.3022 L385.9529,151.1162 Z M358.3249,178.7442 L354.7899,175.2092 L368.6039,161.3952 L372.1389,164.9302 L358.3249,178.7442 Z M330.6969,206.3722 L327.1619,202.8372 L340.9759,189.0232 L344.5109,192.5582 L330.6969,206.3722 Z M303.0689,234.0002 L299.5339,230.4642 L313.3489,216.6502 L316.8839,220.1852 L303.0689,234.0002 Z M275.4419,261.6272 L271.9069,258.0912 L285.7209,244.2782 L289.2559,247.8132 L275.4419,261.6272 Z M247.8149,289.2542 L244.2789,285.7192 L258.0929,271.9062 L261.6279,275.4412 L247.8149,289.2542 Z M220.1869,316.8822 L216.6509,313.3472 L230.4649,299.5342 L233.9999,303.0692 L220.1869,316.8822 Z M192.5589,344.5102 L189.0239,340.9752 L202.8369,327.1622 L206.3719,330.6972 L192.5589,344.5102 Z M164.9309,372.1382 L161.3959,368.6032 L175.2099,354.7892 L178.7449,358.3242 L164.9309,372.1382 Z M137.3029,399.7662 L133.7679,396.2312 L147.5819,382.4172 L151.1169,385.9522 L137.3029,399.7662 Z M109.6759,427.3932 L106.1409,423.8582 L119.9539,410.0452 L123.4889,413.5802 L109.6759,427.3932 Z M82.0479,455.0212 L78.5129,451.4862 L92.3259,437.6722 L95.8609,441.2082 L82.0479,455.0212 Z M54.4199,482.6492 L50.8849,479.1142 L64.6979,465.3002 L68.2329,468.8362 L54.4199,482.6492 Z" id="Fill-2"></path>
            <path d="M468.9893,98.0809 L465.4543,94.5459 L479.1913,80.8089 L482.7263,84.3439 L468.9893,98.0809 Z M441.5143,125.5559 L437.9793,122.0199 L451.7173,108.2829 L455.2523,111.8179 L441.5143,125.5559 Z M414.0403,153.0299 L410.5053,149.4949 L424.2423,135.7579 L427.7773,139.2929 L414.0403,153.0299 Z M386.5653,180.5049 L383.0303,176.9699 L396.7673,163.2319 L400.3023,166.7679 L386.5653,180.5049 Z M359.0913,207.9789 L355.5553,204.4439 L369.2933,190.7069 L372.8283,194.2419 L359.0913,207.9789 Z M331.6163,235.4539 L328.0813,231.9189 L341.8183,218.1819 L345.3533,221.7169 L331.6163,235.4539 Z M304.1413,262.9289 L300.6063,259.3929 L314.3433,245.6559 L317.8793,249.1909 L304.1413,262.9289 Z M276.6673,290.4029 L273.1323,286.8679 L286.8693,273.1309 L290.4043,276.6659 L276.6673,290.4029 Z M249.1923,317.8779 L245.6573,314.3429 L259.3943,300.6049 L262.9293,304.1409 L249.1923,317.8779 Z M221.7173,345.3529 L218.1813,341.8179 L231.9203,328.0799 L235.4553,331.6149 L221.7173,345.3529 Z M194.2423,372.8279 L190.7073,369.2929 L204.4443,355.5559 L207.9793,359.0909 L194.2423,372.8279 Z M166.7673,400.3029 L163.2323,396.7679 L176.9693,383.0299 L180.5053,386.5649 L166.7673,400.3029 Z M139.2933,427.7769 L135.7583,424.2419 L149.4953,410.5049 L153.0303,414.0399 L139.2933,427.7769 Z M111.8183,455.2519 L108.2833,451.7169 L122.0203,437.9789 L125.5553,441.5149 L111.8183,455.2519 Z M84.3433,482.7269 L80.8083,479.1909 L94.5463,465.4539 L98.0813,468.9889 L84.3433,482.7269 Z" id="Fill-5"></path>
            <path d="M468.7002,38.37 L465.1652,34.835 L479.0472,20.953 L482.5822,24.488 L468.7002,38.37 Z M440.9372,66.133 L437.4022,62.598 L451.2842,48.716 L454.8192,52.251 L440.9372,66.133 Z M413.1742,93.896 L409.6382,90.361 L423.5202,76.479 L427.0552,80.015 L413.1742,93.896 Z M385.4102,121.659 L381.8752,118.124 L395.7572,104.243 L399.2922,107.778 L385.4102,121.659 Z M357.6472,149.423 L354.1122,145.888 L367.9942,132.006 L371.5292,135.541 L357.6472,149.423 Z M329.8842,177.185 L326.3482,173.65 L340.2302,159.769 L343.7652,163.305 L329.8842,177.185 Z M302.1202,204.949 L298.5852,201.414 L312.4672,187.532 L316.0022,191.067 L302.1202,204.949 Z M274.3572,232.713 L270.8222,229.178 L284.7042,215.296 L288.2392,218.831 L274.3572,232.713 Z M246.5942,260.475 L243.0582,256.94 L256.9402,243.058 L260.4752,246.594 L246.5942,260.475 Z M218.8312,288.239 L215.2962,284.704 L229.1772,270.822 L232.7122,274.357 L218.8312,288.239 Z M191.0672,316.002 L187.5322,312.467 L201.4142,298.586 L204.9492,302.121 L191.0672,316.002 Z M163.3042,343.766 L159.7682,340.23 L173.6502,326.349 L177.1852,329.884 L163.3042,343.766 Z M135.5412,371.529 L132.0062,367.994 L145.8872,354.112 L149.4222,357.647 L135.5412,371.529 Z M107.7772,399.292 L104.2422,395.757 L118.1242,381.875 L121.6592,385.41 L107.7772,399.292 Z M80.0132,427.056 L76.4782,423.52 L90.3602,409.639 L93.8952,413.174 L80.0132,427.056 Z M52.2512,454.818 L48.7162,451.283 L62.5962,437.402 L66.1322,440.937 L52.2512,454.818 Z M24.4872,482.582 L20.9522,479.047 L34.8342,465.165 L38.3692,468.7 L24.4872,482.582 Z" id="Fill-8"></path>
            <path d="M469.1631,127.9061 L465.6281,124.3711 L479.2781,110.7201 L482.8131,114.2561 L469.1631,127.9061 Z M441.8631,155.2061 L438.3281,151.6711 L451.9781,138.0211 L455.5141,141.5561 L441.8631,155.2061 Z M414.5621,182.5071 L411.0271,178.9711 L424.6781,165.3211 L428.2131,168.8561 L414.5621,182.5071 Z M387.2621,209.8071 L383.7261,206.2721 L397.3771,192.6221 L400.9121,196.1571 L387.2621,209.8071 Z M359.9621,237.1081 L356.4271,233.5731 L370.0761,219.9231 L373.6111,223.4581 L359.9621,237.1081 Z M332.6611,264.4091 L329.1261,260.8741 L342.7761,247.2231 L346.3111,250.7591 L332.6611,264.4091 Z M305.3601,291.7091 L301.8251,288.1741 L315.4761,274.5241 L319.0111,278.0591 L305.3601,291.7091 Z M278.0591,319.0101 L274.5241,315.4741 L288.1751,301.8241 L291.7101,305.3591 L278.0591,319.0101 Z M250.7601,346.3101 L247.2251,342.7751 L260.8741,329.1251 L264.4091,332.6601 L250.7601,346.3101 Z M223.4591,373.6111 L219.9241,370.0761 L233.5741,356.4261 L237.1091,359.9611 L223.4591,373.6111 Z M196.1581,400.9121 L192.6231,397.3771 L206.2731,383.7261 L209.8091,387.2611 L196.1581,400.9121 Z M168.8571,428.2121 L165.3221,424.6771 L178.9731,411.0271 L182.5081,414.5621 L168.8571,428.2121 Z M141.5581,455.5121 L138.0221,451.9771 L151.6731,438.3271 L155.2081,441.8621 L141.5581,455.5121 Z M114.2571,482.8131 L110.7221,479.2781 L124.3721,465.6281 L127.9071,469.1631 L114.2571,482.8131 Z" id="Fill-11"></path>
            <path d="M467.1953,159.8739 L463.6603,156.3389 L478.2943,141.7049 L481.8293,145.2399 L467.1953,159.8739 Z M437.9263,189.1429 L434.3913,185.6069 L449.0253,170.9739 L452.5603,174.5089 L437.9263,189.1429 Z M408.6583,218.4109 L405.1233,214.8759 L419.7573,200.2419 L423.2923,203.7769 L408.6583,218.4109 Z M379.3893,247.6799 L375.8543,244.1449 L390.4883,229.5109 L394.0233,233.0459 L379.3893,247.6799 Z M350.1213,276.9479 L346.5863,273.4129 L361.2193,258.7789 L364.7553,262.3139 L350.1213,276.9479 Z M320.8513,306.2179 L317.3163,302.6829 L331.9513,288.0479 L335.4863,291.5829 L320.8513,306.2179 Z M291.5833,335.4859 L288.0483,331.9509 L302.6823,317.3159 L306.2173,320.8519 L291.5833,335.4859 Z M262.3143,364.7549 L258.7793,361.2199 L273.4143,346.5849 L276.9493,350.1199 L262.3143,364.7549 Z M233.0463,394.0229 L229.5103,390.4879 L244.1453,375.8529 L247.6803,379.3889 L233.0463,394.0229 Z M203.7773,423.2919 L200.2423,419.7569 L214.8773,405.1219 L218.4123,408.6569 L203.7773,423.2919 Z M174.5083,452.5609 L170.9733,449.0249 L185.6083,434.3909 L189.1433,437.9259 L174.5083,452.5609 Z M145.2403,481.8289 L141.7053,478.2939 L156.3403,463.6589 L159.8753,467.1939 L145.2403,481.8289 Z" id="Fill-14"></path>
            <path d="M467.2598,189.8104 L463.7248,186.2754 L478.3268,171.6724 L481.8628,175.2074 L467.2598,189.8104 Z M438.0548,219.0154 L434.5198,215.4804 L449.1218,200.8774 L452.6568,204.4134 L438.0548,219.0154 Z M408.8498,248.2204 L405.3148,244.6854 L419.9168,230.0824 L423.4518,233.6184 L408.8498,248.2204 Z M379.6448,277.4254 L376.1098,273.8904 L390.7118,259.2884 L394.2468,262.8234 L379.6448,277.4254 Z M350.4398,306.6304 L346.9048,303.0954 L361.5068,288.4934 L365.0418,292.0284 L350.4398,306.6304 Z M321.2348,335.8354 L317.6988,332.3004 L332.3018,317.6984 L335.8368,321.2334 L321.2348,335.8354 Z M292.0298,365.0404 L288.4938,361.5054 L303.0968,346.9034 L306.6318,350.4384 L292.0298,365.0404 Z M262.8238,394.2464 L259.2888,390.7104 L273.8918,376.1084 L277.4268,379.6434 L262.8238,394.2464 Z M233.6188,423.4514 L230.0838,419.9154 L244.6868,405.3134 L248.2218,408.8484 L233.6188,423.4514 Z M204.4138,452.6564 L200.8788,449.1214 L215.4818,434.5184 L219.0168,438.0534 L204.4138,452.6564 Z M175.2088,481.8614 L171.6738,478.3264 L186.2768,463.7234 L189.8118,467.2584 L175.2088,481.8614 Z" id="Fill-17"></path>
            <path d="M467.334,219.7352 L463.799,216.2002 L478.364,201.6342 L481.899,205.1702 L467.334,219.7352 Z M438.205,248.8642 L434.67,245.3292 L449.234,230.7642 L452.77,234.2992 L438.205,248.8642 Z M409.076,277.9942 L405.541,274.4592 L420.105,259.8932 L423.641,263.4282 L409.076,277.9942 Z M379.946,307.1232 L376.411,303.5882 L390.976,289.0232 L394.511,292.5582 L379.946,307.1232 Z M350.817,336.2532 L347.282,332.7172 L361.847,318.1522 L365.382,321.6872 L350.817,336.2532 Z M321.688,365.3812 L318.152,361.8462 L332.718,347.2822 L336.253,350.8172 L321.688,365.3812 Z M292.559,394.5112 L289.023,390.9762 L303.588,376.4112 L307.123,379.9462 L292.559,394.5112 Z M263.43,423.6402 L259.895,420.1052 L274.459,405.5412 L277.994,409.0762 L263.43,423.6402 Z M234.3,452.7702 L230.765,449.2352 L245.33,434.6702 L248.865,438.2052 L234.3,452.7702 Z M205.171,481.8992 L201.636,478.3642 L216.2,463.7992 L219.735,467.3352 L205.171,481.8992 Z" id="Fill-20"></path>
            <path d="M467.4258,249.6434 L463.8908,246.1084 L478.4088,231.5894 L481.9448,235.1244 L467.4258,249.6434 Z M438.3888,278.6814 L434.8538,275.1464 L449.3718,260.6264 L452.9068,264.1624 L438.3888,278.6814 Z M409.3508,307.7184 L405.8158,304.1834 L420.3338,289.6644 L423.8688,293.2004 L409.3508,307.7184 Z M380.3138,336.7564 L376.7788,333.2214 L391.2968,318.7034 L394.8318,322.2384 L380.3138,336.7564 Z M351.2758,365.7934 L347.7398,362.2584 L362.2588,347.7404 L365.7938,351.2754 L351.2758,365.7934 Z M322.2388,394.8314 L318.7028,391.2964 L333.2218,376.7784 L336.7568,380.3134 L322.2388,394.8314 Z M293.1998,423.8704 L289.6648,420.3344 L304.1838,405.8154 L307.7188,409.3504 L293.1998,423.8704 Z M264.1628,452.9074 L260.6278,449.3724 L275.1468,434.8534 L278.6818,438.3884 L264.1628,452.9074 Z M235.1248,481.9454 L231.5898,478.4104 L246.1088,463.8914 L249.6438,467.4264 L235.1248,481.9454 Z" id="Fill-23"></path>
            <path d="M467.5391,279.5301 L464.0041,275.9951 L478.4661,261.5331 L482.0011,265.0681 L467.5391,279.5301 Z M438.6141,308.4551 L435.0791,304.9201 L449.5421,290.4571 L453.0771,293.9921 L438.6141,308.4551 Z M409.6901,337.3791 L406.1551,333.8431 L420.6171,319.3821 L424.1521,322.9171 L409.6901,337.3791 Z M380.7661,366.3031 L377.2301,362.7681 L391.6931,348.3061 L395.2281,351.8421 L380.7661,366.3031 Z M351.8421,395.2281 L348.3071,391.6931 L362.7681,377.2311 L366.3041,380.7661 L351.8421,395.2281 Z M322.9171,424.1531 L319.3821,420.6181 L333.8441,406.1551 L337.3791,409.6901 L322.9171,424.1531 Z M293.9931,453.0771 L290.4581,449.5421 L304.9201,435.0801 L308.4551,438.6151 L293.9931,453.0771 Z M265.0681,482.0021 L261.5331,478.4671 L275.9951,464.0051 L279.5301,467.5401 L265.0681,482.0021 Z" id="Fill-26"></path>
            <path d="M467.6826,309.3866 L464.1476,305.8516 L478.5376,291.4606 L482.0736,294.9956 L467.6826,309.3866 Z M438.9026,338.1676 L435.3676,334.6326 L449.7566,320.2416 L453.2916,323.7776 L438.9026,338.1676 Z M410.1206,366.9496 L406.5856,363.4136 L420.9766,349.0236 L424.5116,352.5586 L410.1206,366.9496 Z M381.3396,395.7296 L377.8046,392.1946 L392.1956,377.8036 L395.7306,381.3386 L381.3396,395.7296 Z M352.5586,424.5106 L349.0236,420.9756 L363.4136,406.5846 L366.9496,410.1196 L352.5586,424.5106 Z M323.7786,453.2916 L320.2436,449.7566 L334.6336,435.3656 L338.1686,438.9016 L323.7786,453.2916 Z M294.9966,482.0736 L291.4616,478.5376 L305.8526,464.1476 L309.3876,467.6826 L294.9966,482.0736 Z" id="Fill-29"></path>
            <path d="M467.8701,339.1991 L464.3351,335.6641 L478.6321,321.3671 L482.1671,324.9021 L467.8701,339.1991 Z M439.2771,367.7931 L435.7421,364.2581 L450.0391,349.9611 L453.5741,353.4961 L439.2771,367.7931 Z M410.6831,396.3861 L407.1481,392.8501 L421.4451,378.5541 L424.9801,382.0901 L410.6831,396.3861 Z M382.0901,424.9791 L378.5551,421.4441 L392.8511,407.1471 L396.3871,410.6821 L382.0901,424.9791 Z M353.4971,453.5731 L349.9621,450.0381 L364.2591,435.7411 L367.7941,439.2761 L353.4971,453.5731 Z M324.9031,482.1671 L321.3681,478.6321 L335.6651,464.3351 L339.2001,467.8701 L324.9031,482.1671 Z" id="Fill-32"></path>
            <path d="M468.127,368.9432 L464.592,365.4082 L478.761,351.2392 L482.296,354.7742 L468.127,368.9432 Z M439.789,397.2812 L436.254,393.7462 L450.423,379.5772 L453.958,383.1122 L439.789,397.2812 Z M411.451,425.6192 L407.916,422.0842 L422.085,407.9152 L425.62,411.4502 L411.451,425.6192 Z M383.113,453.9572 L379.578,450.4222 L393.747,436.2532 L397.282,439.7882 L383.113,453.9572 Z M354.775,482.2952 L351.24,478.7592 L365.409,464.5902 L368.944,468.1262 L354.775,482.2952 Z" id="Fill-35"></path>
            <path d="M468.4951,398.5741 L464.9601,395.0391 L478.9441,381.0541 L482.4791,384.5901 L468.4951,398.5741 Z M440.5261,426.5431 L436.9911,423.0081 L450.9751,409.0231 L454.5111,412.5581 L440.5261,426.5431 Z M412.5581,454.5111 L409.0231,450.9751 L423.0071,436.9921 L426.5421,440.5271 L412.5581,454.5111 Z M384.5901,482.4791 L381.0551,478.9441 L395.0391,464.9601 L398.5741,468.4951 L384.5901,482.4791 Z" id="Fill-38"></path>
            <path d="M438.8369,38.2332 L435.3019,34.6982 L449.1149,20.8842 L452.6499,24.4202 L438.8369,38.2332 Z M411.2089,65.8612 L407.6739,62.3262 L421.4869,48.5122 L425.0229,52.0472 L411.2089,65.8612 Z M383.5809,93.4892 L380.0459,89.9542 L393.8589,76.1402 L397.3949,79.6752 L383.5809,93.4892 Z M355.9529,121.1172 L352.4179,117.5822 L366.2319,103.7672 L369.7669,107.3022 L355.9529,121.1172 Z M328.3249,148.7452 L324.7899,145.2102 L338.6049,131.3952 L342.1399,134.9302 L328.3249,148.7452 Z M300.6969,176.3722 L297.1619,172.8372 L310.9769,159.0232 L314.5119,162.5582 L300.6969,176.3722 Z M273.0689,204.0002 L269.5339,200.4642 L283.3489,186.6512 L286.8839,190.1862 L273.0689,204.0002 Z M245.4419,231.6282 L241.9069,228.0922 L255.7209,214.2792 L259.2559,217.8142 L245.4419,231.6282 Z M217.8149,259.2552 L214.2789,255.7202 L228.0929,241.9062 L231.6279,245.4412 L217.8149,259.2552 Z M190.1869,286.8822 L186.6509,283.3472 L200.4649,269.5342 L203.9999,273.0692 L190.1869,286.8822 Z M162.5589,314.5102 L159.0239,310.9752 L172.8369,297.1622 L176.3719,300.6972 L162.5589,314.5102 Z M134.9309,342.1382 L131.3959,338.6032 L145.2099,324.7902 L148.7449,328.3252 L134.9309,342.1382 Z M107.3029,369.7662 L103.7679,366.2312 L117.5819,352.4172 L121.1169,355.9522 L107.3029,369.7662 Z M79.6749,397.3942 L76.1399,393.8592 L89.9539,380.0452 L93.4889,383.5802 L79.6749,397.3942 Z M52.0479,425.0212 L48.5129,421.4862 L62.3259,407.6722 L65.8609,411.2082 L52.0479,425.0212 Z M24.4199,452.6492 L20.8849,449.1142 L34.6979,435.3002 L38.2329,438.8362 L24.4199,452.6492 Z" id="Fill-52"></path>
            <path d="M408.9893,38.0799 L405.4543,34.5449 L419.1913,20.8079 L422.7263,24.3429 L408.9893,38.0799 Z M381.5143,65.5549 L377.9793,62.0189 L391.7173,48.2819 L395.2523,51.8169 L381.5143,65.5549 Z M354.0403,93.0289 L350.5053,89.4939 L364.2423,75.7569 L367.7773,79.2919 L354.0403,93.0289 Z M326.5653,120.5039 L323.0303,116.9689 L336.7673,103.2309 L340.3023,106.7669 L326.5653,120.5039 Z M299.0913,147.9779 L295.5553,144.4429 L309.2933,130.7059 L312.8283,134.2409 L299.0913,147.9779 Z M271.6153,175.4539 L268.0803,171.9189 L281.8183,158.1809 L285.3533,161.7159 L271.6153,175.4539 Z M244.1403,202.9289 L240.6053,199.3929 L254.3433,185.6559 L257.8783,189.1909 L244.1403,202.9289 Z M216.6663,230.4029 L213.1313,226.8679 L226.8683,213.1309 L230.4033,216.6659 L216.6663,230.4029 Z M189.1913,257.8779 L185.6563,254.3429 L199.3933,240.6049 L202.9283,244.1409 L189.1913,257.8779 Z M161.7173,285.3519 L158.1813,281.8169 L171.9193,268.0799 L175.4543,271.6149 L161.7173,285.3519 Z M134.2423,312.8269 L130.7073,309.2919 L144.4443,295.5549 L147.9793,299.0899 L134.2423,312.8269 Z M106.7673,340.3019 L103.2323,336.7669 L116.9693,323.0289 L120.5053,326.5639 L106.7673,340.3019 Z M79.2933,367.7759 L75.7583,364.2409 L89.4953,350.5039 L93.0303,354.0389 L79.2933,367.7759 Z M51.8183,395.2509 L48.2833,391.7159 L62.0203,377.9779 L65.5553,381.5139 L51.8183,395.2509 Z M24.3433,422.7259 L20.8083,419.1899 L34.5463,405.4529 L38.0813,408.9879 L24.3433,422.7259 Z" id="Fill-55"></path>
            <polygon id="Fill-57" points="410.0004 0.0003 402.9294 7.0693 406.4644 10.6053 413.5344 3.5343"></polygon>
            <path d="M379.1631,37.9061 L375.6281,34.3711 L389.2781,20.7201 L392.8131,24.2561 L379.1631,37.9061 Z M351.8621,65.2071 L348.3271,61.6721 L361.9771,48.0211 L365.5131,51.5561 L351.8621,65.2071 Z M324.5621,92.5071 L321.0271,88.9711 L334.6781,75.3221 L338.2131,78.8571 L324.5621,92.5071 Z M297.2621,119.8071 L293.7261,116.2721 L307.3771,102.6221 L310.9121,106.1571 L297.2621,119.8071 Z M269.9611,147.1081 L266.4261,143.5731 L280.0761,129.9231 L283.6111,133.4581 L269.9611,147.1081 Z M242.6611,174.4091 L239.1261,170.8741 L252.7751,157.2231 L256.3101,160.7591 L242.6611,174.4091 Z M215.3601,201.7101 L211.8251,198.1751 L225.4761,184.5241 L229.0111,188.0591 L215.3601,201.7101 Z M188.0591,229.0101 L184.5241,225.4741 L198.1751,211.8251 L201.7101,215.3601 L188.0591,229.0101 Z M160.7591,256.3101 L157.2241,252.7751 L170.8741,239.1251 L174.4091,242.6601 L160.7591,256.3101 Z M133.4591,283.6111 L129.9241,280.0761 L143.5731,266.4261 L147.1081,269.9611 L133.4591,283.6111 Z M106.1581,310.9121 L102.6231,307.3771 L116.2731,293.7261 L119.8091,297.2611 L106.1581,310.9121 Z M78.8571,338.2131 L75.3221,334.6771 L88.9731,321.0271 L92.5081,324.5621 L78.8571,338.2131 Z M51.5571,365.5131 L48.0211,361.9781 L61.6721,348.3281 L65.2071,351.8631 L51.5571,365.5131 Z M24.2571,392.8131 L20.7221,389.2781 L34.3721,375.6281 L37.9071,379.1631 L24.2571,392.8131 Z" id="Fill-58"></path>
            <polygon id="Fill-59" points="0 409.9998 3.535 413.5348 10.607 406.4638 7.071 402.9288"></polygon>
            <polygon id="Fill-60" points="379.9998 0.0003 372.9288 7.0693 376.4638 10.6053 383.5348 3.5343"></polygon>
            <path d="M347.1953,39.8748 L343.6603,36.3398 L358.2953,21.7048 L361.8303,25.2398 L347.1953,39.8748 Z M317.9263,69.1438 L314.3913,65.6078 L329.0263,50.9738 L332.5613,54.5088 L317.9263,69.1438 Z M288.6583,98.4118 L285.1233,94.8768 L299.7573,80.2418 L303.2933,83.7768 L288.6583,98.4118 Z M259.3893,127.6808 L255.8543,124.1458 L270.4893,109.5108 L274.0243,113.0458 L259.3893,127.6808 Z M230.1213,156.9488 L226.5863,153.4138 L241.2203,138.7788 L244.7563,142.3138 L230.1213,156.9488 Z M200.8523,186.2178 L197.3173,182.6828 L211.9513,168.0478 L215.4863,171.5828 L200.8523,186.2178 Z M171.5843,215.4858 L168.0493,211.9508 L182.6823,197.3158 L186.2173,200.8518 L171.5843,215.4858 Z M142.3153,244.7548 L138.7803,241.2198 L153.4143,226.5848 L156.9493,230.1198 L142.3153,244.7548 Z M113.0473,274.0228 L109.5113,270.4878 L124.1453,255.8538 L127.6803,259.3888 L113.0473,274.0228 Z M83.7773,303.2918 L80.2423,299.7568 L94.8773,285.1218 L98.4123,288.6568 L83.7773,303.2918 Z M54.5083,332.5608 L50.9733,329.0248 L65.6083,314.3908 L69.1433,317.9258 L54.5083,332.5608 Z M25.2403,361.8288 L21.7053,358.2938 L36.3403,343.6588 L39.8753,347.1938 L25.2403,361.8288 Z" id="Fill-61"></path>
            <polygon id="Fill-62" points="0 380.0001 3.535 383.5351 10.607 376.4641 7.071 372.9291"></polygon>
            <polygon id="Fill-63" points="350.0001 0.0003 342.9291 7.0693 346.4641 10.6053 353.5351 3.5343"></polygon>
            <path d="M317.2588,39.8104 L313.7238,36.2754 L328.3258,21.6724 L331.8618,25.2074 L317.2588,39.8104 Z M288.0538,69.0154 L284.5188,65.4804 L299.1208,50.8774 L302.6558,54.4134 L288.0538,69.0154 Z M258.8488,98.2204 L255.3138,94.6854 L269.9158,80.0824 L273.4508,83.6184 L258.8488,98.2204 Z M229.6438,127.4254 L226.1088,123.8904 L240.7108,109.2884 L244.2458,112.8234 L229.6438,127.4254 Z M200.4388,156.6304 L196.9038,153.0954 L211.5058,138.4934 L215.0408,142.0284 L200.4388,156.6304 Z M171.2338,185.8354 L167.6978,182.3004 L182.3008,167.6984 L185.8358,171.2334 L171.2338,185.8354 Z M142.0288,215.0404 L138.4928,211.5054 L153.0958,196.9034 L156.6308,200.4384 L142.0288,215.0404 Z M112.8228,244.2464 L109.2878,240.7104 L123.8908,226.1084 L127.4258,229.6434 L112.8228,244.2464 Z M83.6178,273.4514 L80.0828,269.9154 L94.6858,255.3134 L98.2208,258.8484 L83.6178,273.4514 Z M54.4128,302.6564 L50.8778,299.1214 L65.4808,284.5184 L69.0158,288.0534 L54.4128,302.6564 Z M25.2078,331.8614 L21.6728,328.3264 L36.2758,313.7234 L39.8108,317.2584 L25.2078,331.8614 Z" id="Fill-64"></path>
            <polygon id="Fill-65" points="0 349.9995 3.535 353.5345 10.607 346.4635 7.071 342.9285"></polygon>
            <polygon id="Fill-66" points="320.0004 0.0003 312.9294 7.0693 316.4644 10.6053 323.5344 3.5343"></polygon>
            <path d="M287.335,39.7352 L283.8,36.2002 L298.364,21.6352 L301.899,25.1712 L287.335,39.7352 Z M258.205,68.8652 L254.67,65.3302 L269.235,50.7642 L272.771,54.2992 L258.205,68.8652 Z M229.076,97.9942 L225.541,94.4592 L240.106,79.8942 L243.641,83.4292 L229.076,97.9942 Z M199.947,127.1232 L196.412,123.5882 L210.977,109.0232 L214.512,112.5582 L199.947,127.1232 Z M170.817,156.2532 L167.282,152.7172 L181.847,138.1532 L185.382,141.6882 L170.817,156.2532 Z M141.689,185.3812 L138.153,181.8462 L152.718,167.2822 L156.253,170.8172 L141.689,185.3812 Z M112.559,214.5112 L109.023,210.9762 L123.588,196.4122 L127.123,199.9472 L112.559,214.5112 Z M83.43,243.6402 L79.895,240.1052 L94.459,225.5412 L97.994,229.0762 L83.43,243.6402 Z M54.3,272.7702 L50.765,269.2352 L65.33,254.6702 L68.865,258.2052 L54.3,272.7702 Z M25.171,301.8992 L21.636,298.3642 L36.2,283.7992 L39.735,287.3352 L25.171,301.8992 Z" id="Fill-67"></path>
            <polygon id="Fill-68" points="0 319.9998 3.535 323.5348 10.607 316.4638 7.071 312.9288"></polygon>
            <polygon id="Fill-69" points="289.9998 0.0003 282.9288 7.0693 286.4638 10.6053 293.5348 3.5343"></polygon>
            <path d="M257.4268,39.6434 L253.8918,36.1084 L268.4098,21.5894 L271.9458,25.1244 L257.4268,39.6434 Z M228.3888,68.6814 L224.8538,65.1464 L239.3718,50.6274 L242.9068,54.1634 L228.3888,68.6814 Z M199.3508,97.7184 L195.8158,94.1834 L210.3348,79.6644 L213.8698,83.2004 L199.3508,97.7184 Z M170.3138,126.7564 L166.7788,123.2214 L181.2968,108.7034 L184.8318,112.2384 L170.3138,126.7564 Z M141.2758,155.7934 L137.7398,152.2584 L152.2588,137.7404 L155.7938,141.2754 L141.2758,155.7934 Z M112.2388,184.8314 L108.7028,181.2964 L123.2218,166.7784 L126.7568,170.3134 L112.2388,184.8314 Z M83.1998,213.8694 L79.6648,210.3334 L94.1838,195.8154 L97.7188,199.3504 L83.1998,213.8694 Z M54.1618,242.9074 L50.6268,239.3724 L65.1468,224.8534 L68.6818,228.3884 L54.1618,242.9074 Z M25.1248,271.9444 L21.5898,268.4094 L36.1088,253.8904 L39.6438,257.4254 L25.1248,271.9444 Z" id="Fill-70"></path>
            <polygon id="Fill-71" points="0 290.0001 3.535 293.5351 10.607 286.4641 7.071 282.9291"></polygon>
            <polygon id="Fill-72" points="260.0001 0.0003 252.9291 7.0693 256.4641 10.6053 263.5351 3.5343"></polygon>
            <path d="M227.54,39.5301 L224.005,35.9951 L238.467,21.5331 L242.002,25.0681 L227.54,39.5301 Z M198.615,68.4551 L195.08,64.9201 L209.542,50.4581 L213.077,53.9931 L198.615,68.4551 Z M169.69,97.3791 L166.155,93.8431 L180.618,79.3821 L184.153,82.9171 L169.69,97.3791 Z M140.767,126.3031 L137.231,122.7681 L151.693,108.3061 L155.228,111.8421 L140.767,126.3031 Z M111.842,155.2281 L108.307,151.6931 L122.769,137.2301 L126.304,140.7651 L111.842,155.2281 Z M82.917,184.1521 L79.382,180.6171 L93.844,166.1551 L97.379,169.6901 L82.917,184.1521 Z M53.992,213.0771 L50.457,209.5421 L64.92,195.0791 L68.455,198.6141 L53.992,213.0771 Z M25.068,242.0011 L21.533,238.4661 L35.995,224.0041 L39.53,227.5391 L25.068,242.0011 Z" id="Fill-73"></path>
            <polygon id="Fill-74" points="0 259.9995 3.535 263.5345 10.607 256.4635 7.071 252.9285"></polygon>
            <polygon id="Fill-75" points="230.0004 0.0003 222.9294 7.0693 226.4644 10.6053 233.5354 3.5343"></polygon>
            <path d="M197.6826,39.3866 L194.1476,35.8516 L208.5376,21.4606 L212.0736,24.9956 L197.6826,39.3866 Z M168.9016,68.1676 L165.3666,64.6326 L179.7566,50.2416 L183.2916,53.7776 L168.9016,68.1676 Z M140.1206,96.9496 L136.5856,93.4136 L150.9766,79.0236 L154.5116,82.5586 L140.1206,96.9496 Z M111.3396,125.7306 L107.8046,122.1956 L122.1956,107.8046 L125.7306,111.3396 L111.3396,125.7306 Z M82.5586,154.5106 L79.0236,150.9756 L93.4136,136.5846 L96.9496,140.1196 L82.5586,154.5106 Z M53.7786,183.2916 L50.2436,179.7566 L64.6326,165.3656 L68.1676,168.9016 L53.7786,183.2916 Z M24.9966,212.0736 L21.4616,208.5376 L35.8526,194.1476 L39.3876,197.6826 L24.9966,212.0736 Z" id="Fill-76"></path>
            <polygon id="Fill-77" points="0 229.9998 3.535 233.5348 10.607 226.4638 7.071 222.9288"></polygon>
            <polygon id="Fill-78" points="199.9998 0.0003 192.9288 7.0693 196.4638 10.6053 203.5348 3.5343"></polygon>
            <path d="M167.8701,39.1991 L164.3351,35.6641 L178.6321,21.3671 L182.1671,24.9021 L167.8701,39.1991 Z M139.2761,67.7931 L135.7411,64.2581 L150.0381,49.9611 L153.5731,53.4961 L139.2761,67.7931 Z M110.6831,96.3871 L107.1481,92.8511 L121.4451,78.5541 L124.9801,82.0901 L110.6831,96.3871 Z M82.0901,124.9791 L78.5551,121.4441 L92.8511,107.1481 L96.3871,110.6831 L82.0901,124.9791 Z M53.4961,153.5731 L49.9611,150.0381 L64.2581,135.7411 L67.7931,139.2761 L53.4961,153.5731 Z M24.9031,182.1671 L21.3681,178.6321 L35.6651,164.3351 L39.2001,167.8701 L24.9031,182.1671 Z" id="Fill-79"></path>
            <polygon id="Fill-80" points="0 200.0001 3.535 203.5351 10.607 196.4641 7.071 192.9291"></polygon>
            <polygon id="Fill-81" points="170.0001 0.0003 162.9291 7.0693 166.4641 10.6053 173.5351 3.5343"></polygon>
            <path d="M138.126,38.9432 L134.591,35.4082 L148.76,21.2392 L152.295,24.7742 L138.126,38.9432 Z M109.788,67.2812 L106.253,63.7462 L120.422,49.5772 L123.957,53.1122 L109.788,67.2812 Z M81.45,95.6192 L77.915,92.0842 L92.084,77.9152 L95.619,81.4502 L81.45,95.6192 Z M53.112,123.9572 L49.577,120.4222 L63.746,106.2532 L67.281,109.7882 L53.112,123.9572 Z M24.774,152.2952 L21.239,148.7592 L35.408,134.5902 L38.943,138.1262 L24.774,152.2952 Z" id="Fill-82"></path>
            <polygon id="Fill-83" points="0 169.9995 3.535 173.5345 10.607 166.4635 7.071 162.9285"></polygon>
            <polygon id="Fill-84" points="140.0004 0.0003 132.9294 7.0693 136.4644 10.6053 143.5354 3.5343"></polygon>
            <path d="M108.4951,38.5741 L104.9601,35.0391 L118.9441,21.0541 L122.4791,24.5901 L108.4951,38.5741 Z M80.5271,66.5431 L76.9921,63.0081 L90.9751,49.0231 L94.5111,52.5581 L80.5271,66.5431 Z M52.5581,94.5111 L49.0231,90.9751 L63.0081,76.9921 L66.5431,80.5271 L52.5581,94.5111 Z M24.5911,122.4791 L21.0561,118.9441 L35.0391,104.9601 L38.5741,108.4951 L24.5911,122.4791 Z" id="Fill-85"></path>
            <polygon id="Fill-86" points="0 139.9998 3.535 143.5348 10.607 136.4638 7.071 132.9288"></polygon>
            <polygon id="Fill-87" points="109.9998 0.0003 102.9288 7.0693 106.4638 10.6053 113.5348 3.5343"></polygon>
            <path d="M79.0752,37.994 L75.5402,34.459 L89.2342,20.765 L92.7692,24.3 L79.0752,37.994 Z M51.6872,65.382 L48.1522,61.847 L61.8462,48.152 L65.3822,51.687 L51.6872,65.382 Z M24.3002,92.769 L20.7642,89.234 L34.4582,75.541 L37.9932,79.076 L24.3002,92.769 Z" id="Fill-88"></path>
            <polygon id="Fill-89" points="0 110.0001 3.535 113.5351 10.607 106.4641 7.071 102.9291"></polygon>
            <polygon id="Fill-90" points="80.0001 0.0003 72.9291 7.0693 76.4641 10.6053 83.5351 3.5343"></polygon>
            <path d="M50.1201,36.9491 L46.5851,33.4141 L59.7571,20.2421 L63.2921,23.7771 L50.1201,36.9491 Z M23.7771,63.2931 L20.2421,59.7581 L33.4141,46.5861 L36.9491,50.1211 L23.7771,63.2931 Z" id="Fill-91"></path>
            <polygon id="Fill-92" points="0 79.9995 3.535 83.5345 10.607 76.4635 7.071 72.9285"></polygon>
            <polygon id="Fill-93" points="50.0004 0.0003 42.9294 7.0693 46.4644 10.6053 53.5354 3.5343"></polygon>
            <polygon id="Fill-94" points="22.5586 34.5106 19.0236 30.9756 30.9766 19.0236 34.5116 22.5586"></polygon>
            <polygon id="Fill-95" points="0 49.9998 3.535 53.5348 10.607 46.4638 7.071 42.9288"></polygon>
            <polygon id="Fill-96" points="19.9998 0.0003 12.9288 7.0693 16.4638 10.6053 23.5348 3.5343"></polygon>
            <polygon id="Fill-97" points="0 20.0001 3.535 23.5351 10.607 16.4641 7.071 12.9291"></polygon>
        </g>
    </g>
</svg>