<?xml version="1.0" encoding="UTF-8"?>
<svg width="400px" height="400px" viewBox="0 0 400 400" version="1.1" xmlns="http://www.w3.org/2000/svg" xmlns:xlink="http://www.w3.org/1999/xlink">
    <!-- Generator: Sketch 55.2 (78181) - https://sketchapp.com -->
    <title>pattern_1</title>
    <desc>Created with Sketch.</desc>
    <rect width="400" height="400" fill="#000000" />
    <g id="pattern_1" stroke="none" stroke-width="1" fill="none" fill-rule="evenodd">
        <path d="M1,0 L1,1.001 L0,1.001 L0,447.521 L1,447.521 L1,448.52 L447.52,448.52 L447.52,447.521 L448.52,447.521 L448.52,1.001 L447.52,1.001 L447.52,0 L1,0 Z M423.713,24.807 L446.52,24.807 L446.52,2.001 L423.713,2.001 L423.713,24.807 Z M398.906,24.807 L421.713,24.807 L421.713,2.001 L398.906,2.001 L398.906,24.807 Z M374.099,24.807 L396.906,24.807 L396.906,2.001 L374.099,2.001 L374.099,24.807 Z M349.293,24.807 L372.1,24.807 L372.1,2.001 L349.293,2.001 L349.293,24.807 Z M324.486,24.807 L347.293,24.807 L347.293,2.001 L324.486,2.001 L324.486,24.807 Z M299.679,24.807 L322.486,24.807 L322.486,2.001 L299.679,2.001 L299.679,24.807 Z M274.873,24.807 L297.68,24.807 L297.68,2.001 L274.873,2.001 L274.873,24.807 Z M250.067,24.807 L272.873,24.807 L272.873,2.001 L250.067,2.001 L250.067,24.807 Z M225.26,24.807 L248.066,24.807 L248.066,2.001 L225.26,2.001 L225.26,24.807 Z M200.454,24.807 L223.26,24.807 L223.26,2.001 L200.454,2.001 L200.454,24.807 Z M175.647,24.807 L198.453,24.807 L198.453,2.001 L175.647,2.001 L175.647,24.807 Z M150.84,24.807 L173.647,24.807 L173.647,2.001 L150.84,2.001 L150.84,24.807 Z M126.033,24.807 L148.84,24.807 L148.84,2.001 L126.033,2.001 L126.033,24.807 Z M101.227,24.807 L124.034,24.807 L124.034,2.001 L101.227,2.001 L101.227,24.807 Z M76.42,24.807 L99.227,24.807 L99.227,2.001 L76.42,2.001 L76.42,24.807 Z M51.613,24.807 L74.42,24.807 L74.42,2.001 L51.613,2.001 L51.613,24.807 Z M26.807,24.807 L49.614,24.807 L49.614,2.001 L26.807,2.001 L26.807,24.807 Z M2,24.807 L24.807,24.807 L24.807,2.001 L2,2.001 L2,24.807 Z M423.713,49.613 L446.52,49.613 L446.52,26.807 L423.713,26.807 L423.713,49.613 Z M398.906,49.613 L421.713,49.613 L421.713,26.807 L398.906,26.807 L398.906,49.613 Z M374.099,49.613 L396.906,49.613 L396.906,26.807 L374.099,26.807 L374.099,49.613 Z M349.293,49.613 L372.1,49.613 L372.1,26.807 L349.293,26.807 L349.293,49.613 Z M324.486,49.613 L347.293,49.613 L347.293,26.807 L324.486,26.807 L324.486,49.613 Z M299.679,49.613 L322.486,49.613 L322.486,26.807 L299.679,26.807 L299.679,49.613 Z M274.873,49.613 L297.68,49.613 L297.68,26.807 L274.873,26.807 L274.873,49.613 Z M250.067,49.613 L272.873,49.613 L272.873,26.807 L250.067,26.807 L250.067,49.613 Z M225.26,49.613 L248.066,49.613 L248.066,26.807 L225.26,26.807 L225.26,49.613 Z M200.454,49.613 L223.26,49.613 L223.26,26.807 L200.454,26.807 L200.454,49.613 Z M175.647,49.613 L198.453,49.613 L198.453,26.807 L175.647,26.807 L175.647,49.613 Z M150.84,49.613 L173.647,49.613 L173.647,26.807 L150.84,26.807 L150.84,49.613 Z M126.033,49.613 L148.84,49.613 L148.84,26.807 L126.033,26.807 L126.033,49.613 Z M101.227,49.613 L124.034,49.613 L124.034,26.807 L101.227,26.807 L101.227,49.613 Z M76.42,49.613 L99.227,49.613 L99.227,26.807 L76.42,26.807 L76.42,49.613 Z M51.613,49.613 L74.42,49.613 L74.42,26.807 L51.613,26.807 L51.613,49.613 Z M26.807,49.613 L49.614,49.613 L49.614,26.807 L26.807,26.807 L26.807,49.613 Z M2,49.613 L24.807,49.613 L24.807,26.807 L2,26.807 L2,49.613 Z M423.713,74.42 L446.52,74.42 L446.52,51.614 L423.713,51.614 L423.713,74.42 Z M398.906,74.42 L421.713,74.42 L421.713,51.614 L398.906,51.614 L398.906,74.42 Z M374.099,74.42 L396.906,74.42 L396.906,51.614 L374.099,51.614 L374.099,74.42 Z M349.293,74.42 L372.1,74.42 L372.1,51.614 L349.293,51.614 L349.293,74.42 Z M324.486,74.42 L347.293,74.42 L347.293,51.614 L324.486,51.614 L324.486,74.42 Z M299.679,74.42 L322.486,74.42 L322.486,51.614 L299.679,51.614 L299.679,74.42 Z M274.873,74.42 L297.68,74.42 L297.68,51.614 L274.873,51.614 L274.873,74.42 Z M250.067,74.42 L272.873,74.42 L272.873,51.614 L250.067,51.614 L250.067,74.42 Z M225.26,74.42 L248.066,74.42 L248.066,51.614 L225.26,51.614 L225.26,74.42 Z M200.454,74.42 L223.26,74.42 L223.26,51.614 L200.454,51.614 L200.454,74.42 Z M175.647,74.42 L198.453,74.42 L198.453,51.614 L175.647,51.614 L175.647,74.42 Z M150.84,74.42 L173.647,74.42 L173.647,51.614 L150.84,51.614 L150.84,74.42 Z M126.033,74.42 L148.84,74.42 L148.84,51.614 L126.033,51.614 L126.033,74.42 Z M101.227,74.42 L124.034,74.42 L124.034,51.614 L101.227,51.614 L101.227,74.42 Z M76.42,74.42 L99.227,74.42 L99.227,51.614 L76.42,51.614 L76.42,74.42 Z M51.613,74.42 L74.42,74.42 L74.42,51.614 L51.613,51.614 L51.613,74.42 Z M26.807,74.42 L49.614,74.42 L49.614,51.614 L26.807,51.614 L26.807,74.42 Z M2,74.42 L24.807,74.42 L24.807,51.614 L2,51.614 L2,74.42 Z M423.713,99.227 L446.52,99.227 L446.52,76.42 L423.713,76.42 L423.713,99.227 Z M398.906,99.227 L421.713,99.227 L421.713,76.42 L398.906,76.42 L398.906,99.227 Z M374.099,99.227 L396.906,99.227 L396.906,76.42 L374.099,76.42 L374.099,99.227 Z M349.293,99.227 L372.1,99.227 L372.1,76.42 L349.293,76.42 L349.293,99.227 Z M324.486,99.227 L347.293,99.227 L347.293,76.42 L324.486,76.42 L324.486,99.227 Z M299.679,99.227 L322.486,99.227 L322.486,76.42 L299.679,76.42 L299.679,99.227 Z M274.873,99.227 L297.68,99.227 L297.68,76.42 L274.873,76.42 L274.873,99.227 Z M250.067,99.227 L272.873,99.227 L272.873,76.42 L250.067,76.42 L250.067,99.227 Z M225.26,99.227 L248.066,99.227 L248.066,76.42 L225.26,76.42 L225.26,99.227 Z M200.454,99.227 L223.26,99.227 L223.26,76.42 L200.454,76.42 L200.454,99.227 Z M175.647,99.227 L198.453,99.227 L198.453,76.42 L175.647,76.42 L175.647,99.227 Z M150.84,99.227 L173.647,99.227 L173.647,76.42 L150.84,76.42 L150.84,99.227 Z M126.033,99.227 L148.84,99.227 L148.84,76.42 L126.033,76.42 L126.033,99.227 Z M101.227,99.227 L124.034,99.227 L124.034,76.42 L101.227,76.42 L101.227,99.227 Z M76.42,99.227 L99.227,99.227 L99.227,76.42 L76.42,76.42 L76.42,99.227 Z M51.613,99.227 L74.42,99.227 L74.42,76.42 L51.613,76.42 L51.613,99.227 Z M26.807,99.227 L49.614,99.227 L49.614,76.42 L26.807,76.42 L26.807,99.227 Z M2,99.227 L24.807,99.227 L24.807,76.42 L2,76.42 L2,99.227 Z M423.713,124.034 L446.52,124.034 L446.52,101.227 L423.713,101.227 L423.713,124.034 Z M398.906,124.034 L421.713,124.034 L421.713,101.227 L398.906,101.227 L398.906,124.034 Z M374.099,124.034 L396.906,124.034 L396.906,101.227 L374.099,101.227 L374.099,124.034 Z M349.293,124.034 L372.1,124.034 L372.1,101.227 L349.293,101.227 L349.293,124.034 Z M324.486,124.034 L347.293,124.034 L347.293,101.227 L324.486,101.227 L324.486,124.034 Z M299.679,124.034 L322.486,124.034 L322.486,101.227 L299.679,101.227 L299.679,124.034 Z M274.873,124.034 L297.68,124.034 L297.68,101.227 L274.873,101.227 L274.873,124.034 Z M250.067,124.034 L272.873,124.034 L272.873,101.227 L250.067,101.227 L250.067,124.034 Z M225.26,124.034 L248.066,124.034 L248.066,101.227 L225.26,101.227 L225.26,124.034 Z M200.454,124.034 L223.26,124.034 L223.26,101.227 L200.454,101.227 L200.454,124.034 Z M175.647,124.034 L198.453,124.034 L198.453,101.227 L175.647,101.227 L175.647,124.034 Z M150.84,124.034 L173.647,124.034 L173.647,101.227 L150.84,101.227 L150.84,124.034 Z M126.033,124.034 L148.84,124.034 L148.84,101.227 L126.033,101.227 L126.033,124.034 Z M101.227,124.034 L124.034,124.034 L124.034,101.227 L101.227,101.227 L101.227,124.034 Z M76.42,124.034 L99.227,124.034 L99.227,101.227 L76.42,101.227 L76.42,124.034 Z M51.613,124.034 L74.42,124.034 L74.42,101.227 L51.613,101.227 L51.613,124.034 Z M26.807,124.034 L49.614,124.034 L49.614,101.227 L26.807,101.227 L26.807,124.034 Z M2,124.034 L24.807,124.034 L24.807,101.227 L2,101.227 L2,124.034 Z M423.713,148.84 L446.52,148.84 L446.52,126.033 L423.713,126.033 L423.713,148.84 Z M398.906,148.84 L421.713,148.84 L421.713,126.033 L398.906,126.033 L398.906,148.84 Z M374.099,148.84 L396.906,148.84 L396.906,126.033 L374.099,126.033 L374.099,148.84 Z M349.293,148.84 L372.1,148.84 L372.1,126.033 L349.293,126.033 L349.293,148.84 Z M324.486,148.84 L347.293,148.84 L347.293,126.033 L324.486,126.033 L324.486,148.84 Z M299.679,148.84 L322.486,148.84 L322.486,126.033 L299.679,126.033 L299.679,148.84 Z M274.873,148.84 L297.68,148.84 L297.68,126.033 L274.873,126.033 L274.873,148.84 Z M250.067,148.84 L272.873,148.84 L272.873,126.033 L250.067,126.033 L250.067,148.84 Z M225.26,148.84 L248.066,148.84 L248.066,126.033 L225.26,126.033 L225.26,148.84 Z M200.454,148.84 L223.26,148.84 L223.26,126.033 L200.454,126.033 L200.454,148.84 Z M175.647,148.84 L198.453,148.84 L198.453,126.033 L175.647,126.033 L175.647,148.84 Z M150.84,148.84 L173.647,148.84 L173.647,126.033 L150.84,126.033 L150.84,148.84 Z M126.033,148.84 L148.84,148.84 L148.84,126.033 L126.033,126.033 L126.033,148.84 Z M101.227,148.84 L124.034,148.84 L124.034,126.033 L101.227,126.033 L101.227,148.84 Z M76.42,148.84 L99.227,148.84 L99.227,126.033 L76.42,126.033 L76.42,148.84 Z M51.613,148.84 L74.42,148.84 L74.42,126.033 L51.613,126.033 L51.613,148.84 Z M26.807,148.84 L49.614,148.84 L49.614,126.033 L26.807,126.033 L26.807,148.84 Z M2,148.84 L24.807,148.84 L24.807,126.033 L2,126.033 L2,148.84 Z M423.713,173.647 L446.52,173.647 L446.52,150.84 L423.713,150.84 L423.713,173.647 Z M398.906,173.647 L421.713,173.647 L421.713,150.84 L398.906,150.84 L398.906,173.647 Z M374.099,173.647 L396.906,173.647 L396.906,150.84 L374.099,150.84 L374.099,173.647 Z M349.293,173.647 L372.1,173.647 L372.1,150.84 L349.293,150.84 L349.293,173.647 Z M324.486,173.647 L347.293,173.647 L347.293,150.84 L324.486,150.84 L324.486,173.647 Z M299.679,173.647 L322.486,173.647 L322.486,150.84 L299.679,150.84 L299.679,173.647 Z M274.873,173.647 L297.68,173.647 L297.68,150.84 L274.873,150.84 L274.873,173.647 Z M250.067,173.647 L272.873,173.647 L272.873,150.84 L250.067,150.84 L250.067,173.647 Z M225.26,173.647 L248.066,173.647 L248.066,150.84 L225.26,150.84 L225.26,173.647 Z M200.454,173.647 L223.26,173.647 L223.26,150.84 L200.454,150.84 L200.454,173.647 Z M175.647,173.647 L198.453,173.647 L198.453,150.84 L175.647,150.84 L175.647,173.647 Z M150.84,173.647 L173.647,173.647 L173.647,150.84 L150.84,150.84 L150.84,173.647 Z M126.033,173.647 L148.84,173.647 L148.84,150.84 L126.033,150.84 L126.033,173.647 Z M101.227,173.647 L124.034,173.647 L124.034,150.84 L101.227,150.84 L101.227,173.647 Z M76.42,173.647 L99.227,173.647 L99.227,150.84 L76.42,150.84 L76.42,173.647 Z M51.613,173.647 L74.42,173.647 L74.42,150.84 L51.613,150.84 L51.613,173.647 Z M26.807,173.647 L49.614,173.647 L49.614,150.84 L26.807,150.84 L26.807,173.647 Z M2,173.647 L24.807,173.647 L24.807,150.84 L2,150.84 L2,173.647 Z M423.713,198.454 L446.52,198.454 L446.52,175.647 L423.713,175.647 L423.713,198.454 Z M398.906,198.454 L421.713,198.454 L421.713,175.647 L398.906,175.647 L398.906,198.454 Z M374.099,198.454 L396.906,198.454 L396.906,175.647 L374.099,175.647 L374.099,198.454 Z M349.293,198.454 L372.1,198.454 L372.1,175.647 L349.293,175.647 L349.293,198.454 Z M324.486,198.454 L347.293,198.454 L347.293,175.647 L324.486,175.647 L324.486,198.454 Z M299.679,198.454 L322.486,198.454 L322.486,175.647 L299.679,175.647 L299.679,198.454 Z M274.873,198.454 L297.68,198.454 L297.68,175.647 L274.873,175.647 L274.873,198.454 Z M250.067,198.454 L272.873,198.454 L272.873,175.647 L250.067,175.647 L250.067,198.454 Z M225.26,198.454 L248.066,198.454 L248.066,175.647 L225.26,175.647 L225.26,198.454 Z M200.454,198.454 L223.26,198.454 L223.26,175.647 L200.454,175.647 L200.454,198.454 Z M175.647,198.454 L198.453,198.454 L198.453,175.647 L175.647,175.647 L175.647,198.454 Z M150.84,198.454 L173.647,198.454 L173.647,175.647 L150.84,175.647 L150.84,198.454 Z M126.033,198.454 L148.84,198.454 L148.84,175.647 L126.033,175.647 L126.033,198.454 Z M101.227,198.454 L124.034,198.454 L124.034,175.647 L101.227,175.647 L101.227,198.454 Z M76.42,198.454 L99.227,198.454 L99.227,175.647 L76.42,175.647 L76.42,198.454 Z M51.613,198.454 L74.42,198.454 L74.42,175.647 L51.613,175.647 L51.613,198.454 Z M26.807,198.454 L49.614,198.454 L49.614,175.647 L26.807,175.647 L26.807,198.454 Z M2,198.454 L24.807,198.454 L24.807,175.647 L2,175.647 L2,198.454 Z M423.713,223.26 L446.52,223.26 L446.52,200.453 L423.713,200.453 L423.713,223.26 Z M398.906,223.26 L421.713,223.26 L421.713,200.453 L398.906,200.453 L398.906,223.26 Z M374.099,223.26 L396.906,223.26 L396.906,200.453 L374.099,200.453 L374.099,223.26 Z M349.293,223.26 L372.1,223.26 L372.1,200.453 L349.293,200.453 L349.293,223.26 Z M324.486,223.26 L347.293,223.26 L347.293,200.453 L324.486,200.453 L324.486,223.26 Z M299.679,223.26 L322.486,223.26 L322.486,200.453 L299.679,200.453 L299.679,223.26 Z M274.873,223.26 L297.68,223.26 L297.68,200.453 L274.873,200.453 L274.873,223.26 Z M250.067,223.26 L272.873,223.26 L272.873,200.453 L250.067,200.453 L250.067,223.26 Z M225.26,223.26 L248.066,223.26 L248.066,200.453 L225.26,200.453 L225.26,223.26 Z M200.454,223.26 L223.26,223.26 L223.26,200.453 L200.454,200.453 L200.454,223.26 Z M175.647,223.26 L198.453,223.26 L198.453,200.453 L175.647,200.453 L175.647,223.26 Z M150.84,223.26 L173.647,223.26 L173.647,200.453 L150.84,200.453 L150.84,223.26 Z M126.033,223.26 L148.84,223.26 L148.84,200.453 L126.033,200.453 L126.033,223.26 Z M101.227,223.26 L124.034,223.26 L124.034,200.453 L101.227,200.453 L101.227,223.26 Z M76.42,223.26 L99.227,223.26 L99.227,200.453 L76.42,200.453 L76.42,223.26 Z M51.613,223.26 L74.42,223.26 L74.42,200.453 L51.613,200.453 L51.613,223.26 Z M26.807,223.26 L49.614,223.26 L49.614,200.453 L26.807,200.453 L26.807,223.26 Z M2,223.26 L24.807,223.26 L24.807,200.453 L2,200.453 L2,223.26 Z M423.713,248.067 L446.52,248.067 L446.52,225.26 L423.713,225.26 L423.713,248.067 Z M398.906,248.067 L421.713,248.067 L421.713,225.26 L398.906,225.26 L398.906,248.067 Z M374.099,248.067 L396.906,248.067 L396.906,225.26 L374.099,225.26 L374.099,248.067 Z M349.293,248.067 L372.1,248.067 L372.1,225.26 L349.293,225.26 L349.293,248.067 Z M324.486,248.067 L347.293,248.067 L347.293,225.26 L324.486,225.26 L324.486,248.067 Z M299.679,248.067 L322.486,248.067 L322.486,225.26 L299.679,225.26 L299.679,248.067 Z M274.873,248.067 L297.68,248.067 L297.68,225.26 L274.873,225.26 L274.873,248.067 Z M250.067,248.067 L272.873,248.067 L272.873,225.26 L250.067,225.26 L250.067,248.067 Z M225.26,248.067 L248.066,248.067 L248.066,225.26 L225.26,225.26 L225.26,248.067 Z M200.454,248.067 L223.26,248.067 L223.26,225.26 L200.454,225.26 L200.454,248.067 Z M175.647,248.067 L198.453,248.067 L198.453,225.26 L175.647,225.26 L175.647,248.067 Z M150.84,248.067 L173.647,248.067 L173.647,225.26 L150.84,225.26 L150.84,248.067 Z M126.033,248.067 L148.84,248.067 L148.84,225.26 L126.033,225.26 L126.033,248.067 Z M101.227,248.067 L124.034,248.067 L124.034,225.26 L101.227,225.26 L101.227,248.067 Z M76.42,248.067 L99.227,248.067 L99.227,225.26 L76.42,225.26 L76.42,248.067 Z M51.613,248.067 L74.42,248.067 L74.42,225.26 L51.613,225.26 L51.613,248.067 Z M26.807,248.067 L49.614,248.067 L49.614,225.26 L26.807,225.26 L26.807,248.067 Z M2,248.067 L24.807,248.067 L24.807,225.26 L2,225.26 L2,248.067 Z M423.713,272.874 L446.52,272.874 L446.52,250.067 L423.713,250.067 L423.713,272.874 Z M398.906,272.874 L421.713,272.874 L421.713,250.067 L398.906,250.067 L398.906,272.874 Z M374.099,272.874 L396.906,272.874 L396.906,250.067 L374.099,250.067 L374.099,272.874 Z M349.293,272.874 L372.1,272.874 L372.1,250.067 L349.293,250.067 L349.293,272.874 Z M324.486,272.874 L347.293,272.874 L347.293,250.067 L324.486,250.067 L324.486,272.874 Z M299.679,272.874 L322.486,272.874 L322.486,250.067 L299.679,250.067 L299.679,272.874 Z M274.873,272.874 L297.68,272.874 L297.68,250.067 L274.873,250.067 L274.873,272.874 Z M250.067,272.874 L272.873,272.874 L272.873,250.067 L250.067,250.067 L250.067,272.874 Z M225.26,272.874 L248.066,272.874 L248.066,250.067 L225.26,250.067 L225.26,272.874 Z M200.454,272.874 L223.26,272.874 L223.26,250.067 L200.454,250.067 L200.454,272.874 Z M175.647,272.874 L198.453,272.874 L198.453,250.067 L175.647,250.067 L175.647,272.874 Z M150.84,272.874 L173.647,272.874 L173.647,250.067 L150.84,250.067 L150.84,272.874 Z M126.033,272.874 L148.84,272.874 L148.84,250.067 L126.033,250.067 L126.033,272.874 Z M101.227,272.874 L124.034,272.874 L124.034,250.067 L101.227,250.067 L101.227,272.874 Z M76.42,272.874 L99.227,272.874 L99.227,250.067 L76.42,250.067 L76.42,272.874 Z M51.613,272.874 L74.42,272.874 L74.42,250.067 L51.613,250.067 L51.613,272.874 Z M26.807,272.874 L49.614,272.874 L49.614,250.067 L26.807,250.067 L26.807,272.874 Z M2,272.874 L24.807,272.874 L24.807,250.067 L2,250.067 L2,272.874 Z M423.713,297.68 L446.52,297.68 L446.52,274.873 L423.713,274.873 L423.713,297.68 Z M398.906,297.68 L421.713,297.68 L421.713,274.873 L398.906,274.873 L398.906,297.68 Z M374.099,297.68 L396.906,297.68 L396.906,274.873 L374.099,274.873 L374.099,297.68 Z M349.293,297.68 L372.1,297.68 L372.1,274.873 L349.293,274.873 L349.293,297.68 Z M324.486,297.68 L347.293,297.68 L347.293,274.873 L324.486,274.873 L324.486,297.68 Z M299.679,297.68 L322.486,297.68 L322.486,274.873 L299.679,274.873 L299.679,297.68 Z M274.873,297.68 L297.68,297.68 L297.68,274.873 L274.873,274.873 L274.873,297.68 Z M250.067,297.68 L272.873,297.68 L272.873,274.873 L250.067,274.873 L250.067,297.68 Z M225.26,297.68 L248.066,297.68 L248.066,274.873 L225.26,274.873 L225.26,297.68 Z M200.454,297.68 L223.26,297.68 L223.26,274.873 L200.454,274.873 L200.454,297.68 Z M175.647,297.68 L198.453,297.68 L198.453,274.873 L175.647,274.873 L175.647,297.68 Z M150.84,297.68 L173.647,297.68 L173.647,274.873 L150.84,274.873 L150.84,297.68 Z M126.033,297.68 L148.84,297.68 L148.84,274.873 L126.033,274.873 L126.033,297.68 Z M101.227,297.68 L124.034,297.68 L124.034,274.873 L101.227,274.873 L101.227,297.68 Z M76.42,297.68 L99.227,297.68 L99.227,274.873 L76.42,274.873 L76.42,297.68 Z M51.613,297.68 L74.42,297.68 L74.42,274.873 L51.613,274.873 L51.613,297.68 Z M26.807,297.68 L49.614,297.68 L49.614,274.873 L26.807,274.873 L26.807,297.68 Z M2,297.68 L24.807,297.68 L24.807,274.873 L2,274.873 L2,297.68 Z M423.713,322.487 L446.52,322.487 L446.52,299.68 L423.713,299.68 L423.713,322.487 Z M398.906,322.487 L421.713,322.487 L421.713,299.68 L398.906,299.68 L398.906,322.487 Z M374.099,322.487 L396.906,322.487 L396.906,299.68 L374.099,299.68 L374.099,322.487 Z M349.293,322.487 L372.1,322.487 L372.1,299.68 L349.293,299.68 L349.293,322.487 Z M324.486,322.487 L347.293,322.487 L347.293,299.68 L324.486,299.68 L324.486,322.487 Z M299.679,322.487 L322.486,322.487 L322.486,299.68 L299.679,299.68 L299.679,322.487 Z M274.873,322.487 L297.68,322.487 L297.68,299.68 L274.873,299.68 L274.873,322.487 Z M250.067,322.487 L272.873,322.487 L272.873,299.68 L250.067,299.68 L250.067,322.487 Z M225.26,322.487 L248.066,322.487 L248.066,299.68 L225.26,299.68 L225.26,322.487 Z M200.454,322.487 L223.26,322.487 L223.26,299.68 L200.454,299.68 L200.454,322.487 Z M175.647,322.487 L198.453,322.487 L198.453,299.68 L175.647,299.68 L175.647,322.487 Z M150.84,322.487 L173.647,322.487 L173.647,299.68 L150.84,299.68 L150.84,322.487 Z M126.033,322.487 L148.84,322.487 L148.84,299.68 L126.033,299.68 L126.033,322.487 Z M101.227,322.487 L124.034,322.487 L124.034,299.68 L101.227,299.68 L101.227,322.487 Z M76.42,322.487 L99.227,322.487 L99.227,299.68 L76.42,299.68 L76.42,322.487 Z M51.613,322.487 L74.42,322.487 L74.42,299.68 L51.613,299.68 L51.613,322.487 Z M26.807,322.487 L49.614,322.487 L49.614,299.68 L26.807,299.68 L26.807,322.487 Z M2,322.487 L24.807,322.487 L24.807,299.68 L2,299.68 L2,322.487 Z M423.713,347.294 L446.52,347.294 L446.52,324.487 L423.713,324.487 L423.713,347.294 Z M398.906,347.294 L421.713,347.294 L421.713,324.487 L398.906,324.487 L398.906,347.294 Z M374.099,347.294 L396.906,347.294 L396.906,324.487 L374.099,324.487 L374.099,347.294 Z M349.293,347.294 L372.1,347.294 L372.1,324.487 L349.293,324.487 L349.293,347.294 Z M324.486,347.294 L347.293,347.294 L347.293,324.487 L324.486,324.487 L324.486,347.294 Z M299.679,347.294 L322.486,347.294 L322.486,324.487 L299.679,324.487 L299.679,347.294 Z M274.873,347.294 L297.68,347.294 L297.68,324.487 L274.873,324.487 L274.873,347.294 Z M250.067,347.294 L272.873,347.294 L272.873,324.487 L250.067,324.487 L250.067,347.294 Z M225.26,347.294 L248.066,347.294 L248.066,324.487 L225.26,324.487 L225.26,347.294 Z M200.454,347.294 L223.26,347.294 L223.26,324.487 L200.454,324.487 L200.454,347.294 Z M175.647,347.294 L198.453,347.294 L198.453,324.487 L175.647,324.487 L175.647,347.294 Z M150.84,347.294 L173.647,347.294 L173.647,324.487 L150.84,324.487 L150.84,347.294 Z M126.033,347.294 L148.84,347.294 L148.84,324.487 L126.033,324.487 L126.033,347.294 Z M101.227,347.294 L124.034,347.294 L124.034,324.487 L101.227,324.487 L101.227,347.294 Z M76.42,347.294 L99.227,347.294 L99.227,324.487 L76.42,324.487 L76.42,347.294 Z M51.613,347.294 L74.42,347.294 L74.42,324.487 L51.613,324.487 L51.613,347.294 Z M26.807,347.294 L49.614,347.294 L49.614,324.487 L26.807,324.487 L26.807,347.294 Z M2,347.294 L24.807,347.294 L24.807,324.487 L2,324.487 L2,347.294 Z M423.713,372.101 L446.52,372.101 L446.52,349.294 L423.713,349.294 L423.713,372.101 Z M398.906,372.101 L421.713,372.101 L421.713,349.294 L398.906,349.294 L398.906,372.101 Z M374.099,372.101 L396.906,372.101 L396.906,349.294 L374.099,349.294 L374.099,372.101 Z M349.293,372.101 L372.1,372.101 L372.1,349.294 L349.293,349.294 L349.293,372.101 Z M324.486,372.101 L347.293,372.101 L347.293,349.294 L324.486,349.294 L324.486,372.101 Z M299.679,372.101 L322.486,372.101 L322.486,349.294 L299.679,349.294 L299.679,372.101 Z M274.873,372.101 L297.68,372.101 L297.68,349.294 L274.873,349.294 L274.873,372.101 Z M250.067,372.101 L272.873,372.101 L272.873,349.294 L250.067,349.294 L250.067,372.101 Z M225.26,372.101 L248.066,372.101 L248.066,349.294 L225.26,349.294 L225.26,372.101 Z M200.454,372.101 L223.26,372.101 L223.26,349.294 L200.454,349.294 L200.454,372.101 Z M175.647,372.101 L198.453,372.101 L198.453,349.294 L175.647,349.294 L175.647,372.101 Z M150.84,372.101 L173.647,372.101 L173.647,349.294 L150.84,349.294 L150.84,372.101 Z M126.033,372.101 L148.84,372.101 L148.84,349.294 L126.033,349.294 L126.033,372.101 Z M101.227,372.101 L124.034,372.101 L124.034,349.294 L101.227,349.294 L101.227,372.101 Z M76.42,372.101 L99.227,372.101 L99.227,349.294 L76.42,349.294 L76.42,372.101 Z M51.613,372.101 L74.42,372.101 L74.42,349.294 L51.613,349.294 L51.613,372.101 Z M26.807,372.101 L49.614,372.101 L49.614,349.294 L26.807,349.294 L26.807,372.101 Z M2,372.101 L24.807,372.101 L24.807,349.294 L2,349.294 L2,372.101 Z M423.713,396.907 L446.52,396.907 L446.52,374.1 L423.713,374.1 L423.713,396.907 Z M398.906,396.907 L421.713,396.907 L421.713,374.1 L398.906,374.1 L398.906,396.907 Z M374.099,396.907 L396.906,396.907 L396.906,374.1 L374.099,374.1 L374.099,396.907 Z M349.293,396.907 L372.1,396.907 L372.1,374.1 L349.293,374.1 L349.293,396.907 Z M324.486,396.907 L347.293,396.907 L347.293,374.1 L324.486,374.1 L324.486,396.907 Z M299.679,396.907 L322.486,396.907 L322.486,374.1 L299.679,374.1 L299.679,396.907 Z M274.873,396.907 L297.68,396.907 L297.68,374.1 L274.873,374.1 L274.873,396.907 Z M250.067,396.907 L272.873,396.907 L272.873,374.1 L250.067,374.1 L250.067,396.907 Z M225.26,396.907 L248.066,396.907 L248.066,374.1 L225.26,374.1 L225.26,396.907 Z M200.454,396.907 L223.26,396.907 L223.26,374.1 L200.454,374.1 L200.454,396.907 Z M175.647,396.907 L198.453,396.907 L198.453,374.1 L175.647,374.1 L175.647,396.907 Z M150.84,396.907 L173.647,396.907 L173.647,374.1 L150.84,374.1 L150.84,396.907 Z M126.033,396.907 L148.84,396.907 L148.84,374.1 L126.033,374.1 L126.033,396.907 Z M101.227,396.907 L124.034,396.907 L124.034,374.1 L101.227,374.1 L101.227,396.907 Z M76.42,396.907 L99.227,396.907 L99.227,374.1 L76.42,374.1 L76.42,396.907 Z M51.613,396.907 L74.42,396.907 L74.42,374.1 L51.613,374.1 L51.613,396.907 Z M26.807,396.907 L49.614,396.907 L49.614,374.1 L26.807,374.1 L26.807,396.907 Z M2,396.907 L24.807,396.907 L24.807,374.1 L2,374.1 L2,396.907 Z M423.713,421.714 L446.52,421.714 L446.52,398.907 L423.713,398.907 L423.713,421.714 Z M398.906,421.714 L421.713,421.714 L421.713,398.907 L398.906,398.907 L398.906,421.714 Z M374.099,421.714 L396.906,421.714 L396.906,398.907 L374.099,398.907 L374.099,421.714 Z M349.293,421.714 L372.1,421.714 L372.1,398.907 L349.293,398.907 L349.293,421.714 Z M324.486,421.714 L347.293,421.714 L347.293,398.907 L324.486,398.907 L324.486,421.714 Z M299.679,421.714 L322.486,421.714 L322.486,398.907 L299.679,398.907 L299.679,421.714 Z M274.873,421.714 L297.68,421.714 L297.68,398.907 L274.873,398.907 L274.873,421.714 Z M250.067,421.714 L272.873,421.714 L272.873,398.907 L250.067,398.907 L250.067,421.714 Z M225.26,421.714 L248.066,421.714 L248.066,398.907 L225.26,398.907 L225.26,421.714 Z M200.454,421.714 L223.26,421.714 L223.26,398.907 L200.454,398.907 L200.454,421.714 Z M175.647,421.714 L198.453,421.714 L198.453,398.907 L175.647,398.907 L175.647,421.714 Z M150.84,421.714 L173.647,421.714 L173.647,398.907 L150.84,398.907 L150.84,421.714 Z M126.033,421.714 L148.84,421.714 L148.84,398.907 L126.033,398.907 L126.033,421.714 Z M101.227,421.714 L124.034,421.714 L124.034,398.907 L101.227,398.907 L101.227,421.714 Z M76.42,421.714 L99.227,421.714 L99.227,398.907 L76.42,398.907 L76.42,421.714 Z M51.613,421.714 L74.42,421.714 L74.42,398.907 L51.613,398.907 L51.613,421.714 Z M26.807,421.714 L49.614,421.714 L49.614,398.907 L26.807,398.907 L26.807,421.714 Z M2,421.714 L24.807,421.714 L24.807,398.907 L2,398.907 L2,421.714 Z M423.713,446.521 L446.52,446.521 L446.52,423.714 L423.713,423.714 L423.713,446.521 Z M398.906,446.521 L421.713,446.521 L421.713,423.714 L398.906,423.714 L398.906,446.521 Z M374.099,446.521 L396.906,446.521 L396.906,423.714 L374.099,423.714 L374.099,446.521 Z M349.293,446.521 L372.1,446.521 L372.1,423.714 L349.293,423.714 L349.293,446.521 Z M324.486,446.521 L347.293,446.521 L347.293,423.714 L324.486,423.714 L324.486,446.521 Z M299.679,446.521 L322.486,446.521 L322.486,423.714 L299.679,423.714 L299.679,446.521 Z M274.873,446.521 L297.68,446.521 L297.68,423.714 L274.873,423.714 L274.873,446.521 Z M250.067,446.521 L272.873,446.521 L272.873,423.714 L250.067,423.714 L250.067,446.521 Z M225.26,446.521 L248.066,446.521 L248.066,423.714 L225.26,423.714 L225.26,446.521 Z M200.454,446.521 L223.26,446.521 L223.26,423.714 L200.454,423.714 L200.454,446.521 Z M175.647,446.521 L198.453,446.521 L198.453,423.714 L175.647,423.714 L175.647,446.521 Z M150.84,446.521 L173.647,446.521 L173.647,423.714 L150.84,423.714 L150.84,446.521 Z M126.033,446.521 L148.84,446.521 L148.84,423.714 L126.033,423.714 L126.033,446.521 Z M101.227,446.521 L124.034,446.521 L124.034,423.714 L101.227,423.714 L101.227,446.521 Z M76.42,446.521 L99.227,446.521 L99.227,423.714 L76.42,423.714 L76.42,446.521 Z M51.613,446.521 L74.42,446.521 L74.42,423.714 L51.613,423.714 L51.613,446.521 Z M26.807,446.521 L49.614,446.521 L49.614,423.714 L26.807,423.714 L26.807,446.521 Z M2,446.521 L24.807,446.521 L24.807,423.714 L2,423.714 L2,446.521 Z" id="Fill-1" fill="#ffffff"></path>
    </g>
</svg>