<?xml version="1.0" encoding="UTF-8"?>
<svg width="400px" height="400px" viewBox="0 0 400 400" version="1.1" xmlns="http://www.w3.org/2000/svg" xmlns:xlink="http://www.w3.org/1999/xlink">
    <!-- Generator: Sketch 55.2 (78181) - https://sketchapp.com -->
    <title>pattern_4</title>
    <desc>Created with Sketch.</desc>
    <g id="pattern_4" stroke="none" stroke-width="1" fill="none" fill-rule="evenodd">
        <g id="Group" transform="translate(3.000000, 2.999800)" fill="#000000">
            <polygon id="Fill-1" points="29.765 16.9531 33.281 9.9221 36.796 16.9531"></polygon>
            <polygon id="Fill-2" points="49.6088 16.9531 53.1248 9.9221 56.6398 16.9531"></polygon>
            <polygon id="Fill-3" points="43.2027 8.52651283e-14 39.6877 7.031 46.7177 7.031"></polygon>
            <polygon id="Fill-4" points="29.765 36.7969 33.281 29.7649 36.796 36.7969"></polygon>
            <polygon id="Fill-5" points="49.6088 36.7969 53.1248 29.7649 56.6398 36.7969"></polygon>
            <polygon id="Fill-6" points="39.6869 26.875 43.2029 19.844 46.7179 26.875"></polygon>
            <polygon id="Fill-7" points="69.5268 16.9531 73.0428 9.9221 76.5578 16.9531"></polygon>
            <polygon id="Fill-8" points="89.3695 16.9531 92.8865 9.9221 96.4015 16.9531"></polygon>
            <polygon id="Fill-9" points="82.9647 8.52651283e-14 79.4487 7.031 86.4797 7.031"></polygon>
            <polygon id="Fill-10" points="69.5268 36.7969 73.0428 29.7649 76.5578 36.7969"></polygon>
            <polygon id="Fill-11" points="89.3695 36.7969 92.8865 29.7649 96.4015 36.7969"></polygon>
            <polygon id="Fill-12" points="79.4486 26.875 82.9646 19.844 86.4796 26.875"></polygon>
            <polygon id="Fill-13" points="63.1206 8.52651283e-14 59.6056 7.031 66.6356 7.031"></polygon>
            <polygon id="Fill-14" points="59.6049 26.875 63.1209 19.844 66.6359 26.875"></polygon>
            <polygon id="Fill-15" points="29.765 56.6396 33.281 49.6086 36.796 56.6396"></polygon>
            <polygon id="Fill-16" points="49.6088 56.6396 53.1248 49.6086 56.6398 56.6396"></polygon>
            <polygon id="Fill-17" points="39.6869 46.7177 43.2029 39.6867 46.7179 46.7177"></polygon>
            <polygon id="Fill-18" points="29.765 76.4834 33.281 69.4524 36.796 76.4834"></polygon>
            <polygon id="Fill-19" points="49.6088 76.4834 53.1248 69.4524 56.6398 76.4834"></polygon>
            <polygon id="Fill-20" points="39.6869 66.5615 43.2029 59.5305 46.7179 66.5615"></polygon>
            <polygon id="Fill-21" points="69.5268 56.6396 73.0428 49.6086 76.5578 56.6396"></polygon>
            <polygon id="Fill-22" points="89.3695 56.6396 92.8865 49.6086 96.4015 56.6396"></polygon>
            <polygon id="Fill-23" points="79.4486 46.7177 82.9646 39.6867 86.4796 46.7177"></polygon>
            <polygon id="Fill-24" points="69.5268 76.4834 73.0428 69.4514 76.5578 76.4834"></polygon>
            <polygon id="Fill-25" points="89.3695 76.4834 92.8865 69.4524 96.4015 76.4834"></polygon>
            <polygon id="Fill-26" points="79.4486 66.5615 82.9646 59.5305 86.4796 66.5615"></polygon>
            <polygon id="Fill-27" points="59.6049 46.7177 63.1209 39.6867 66.6359 46.7177"></polygon>
            <polygon id="Fill-28" points="59.6049 66.5615 63.1209 59.5305 66.6359 66.5615"></polygon>
            <polygon id="Fill-29" points="9.9213 16.9531 13.4383 9.9221 16.9533 16.9531"></polygon>
            <polygon id="Fill-30" points="23.3586 8.52651283e-14 19.8436 7.031 26.8736 7.031"></polygon>
            <polygon id="Fill-31" points="9.9223 36.7969 13.4383 29.7649 16.9533 36.7969"></polygon>
            <polygon id="Fill-32" points="19.8432 26.875 23.3592 19.844 26.8752 26.875"></polygon>
            <polygon id="Fill-33" points="3.5163 8.52651283e-14 0.0003 7.031 7.0313 7.031"></polygon>
            <polygon id="Fill-34" points="7.63833441e-14 26.8749 7.032 26.8749 3.516 19.8439"></polygon>
            <polygon id="Fill-35" points="9.9213 56.6396 13.4383 49.6086 16.9533 56.6396"></polygon>
            <polygon id="Fill-36" points="19.8432 46.7177 23.3592 39.6867 26.8752 46.7177"></polygon>
            <polygon id="Fill-37" points="9.9213 76.4834 13.4383 69.4514 16.9533 76.4834"></polygon>
            <polygon id="Fill-38" points="19.8432 66.5615 23.3592 59.5305 26.8742 66.5615"></polygon>
            <polygon id="Fill-39" points="7.63833441e-14 46.7181 7.032 46.7181 3.516 39.6861"></polygon>
            <polygon id="Fill-40" points="7.63833441e-14 66.5613 7.032 66.5613 3.516 59.5303"></polygon>
            <polygon id="Fill-41" points="39.6869 86.4052 43.2029 79.3732 46.7179 86.4052"></polygon>
            <polygon id="Fill-42" points="79.4486 86.4052 82.9646 79.3742 86.4796 86.4052"></polygon>
            <polygon id="Fill-43" points="59.6049 86.4052 63.1209 79.3742 66.6359 86.4052"></polygon>
            <polygon id="Fill-44" points="19.8432 86.4052 23.3592 79.3742 26.8752 86.4052"></polygon>
            <polygon id="Fill-45" points="7.63833441e-14 86.4054 7.032 86.4054 3.516 79.3734"></polygon>
            <polygon id="Fill-46" points="148.975 16.9531 152.491 9.9221 156.006 16.9531"></polygon>
            <polygon id="Fill-47" points="168.8178 16.9531 172.3338 9.9221 175.8488 16.9531"></polygon>
            <polygon id="Fill-48" points="162.4122 8.52651283e-14 158.8962 7.031 165.9282 7.031"></polygon>
            <polygon id="Fill-49" points="148.975 36.7969 152.491 29.7649 156.006 36.7969"></polygon>
            <polygon id="Fill-50" points="168.8178 36.7969 172.3338 29.7659 175.8488 36.7969"></polygon>
            <polygon id="Fill-51" points="158.8959 26.875 162.4129 19.844 165.9279 26.875"></polygon>
            <polygon id="Fill-52" points="182.3301 8.52651283e-14 178.8151 7.031 185.8451 7.031 185.8451 7.029"></polygon>
            <polygon id="Fill-53" points="178.8138 26.8749 185.8458 26.8749 185.8458 26.8729 182.3298 19.8439"></polygon>
            <polygon id="Fill-54" points="148.975 56.6396 152.491 49.6086 156.006 56.6396"></polygon>
            <polygon id="Fill-55" points="168.8178 56.6396 172.3338 49.6086 175.8488 56.6396"></polygon>
            <polygon id="Fill-56" points="158.8959 46.7177 162.4129 39.6867 165.9279 46.7177"></polygon>
            <polygon id="Fill-57" points="148.975 76.4834 152.491 69.4524 156.006 76.4834"></polygon>
            <polygon id="Fill-58" points="168.8178 76.4834 172.3338 69.4524 175.8488 76.4834"></polygon>
            <polygon id="Fill-59" points="158.8959 66.5615 162.4129 59.5305 165.9279 66.5615"></polygon>
            <polygon id="Fill-60" points="178.8138 46.7181 185.8458 46.7191 185.8458 46.7171 182.3298 39.6861"></polygon>
            <polygon id="Fill-61" points="178.8147 66.5613 185.8457 66.5613 185.8457 66.5593 182.3297 59.5303"></polygon>
            <polygon id="Fill-62" points="109.2133 16.9531 112.7293 9.9221 116.2443 16.9531"></polygon>
            <polygon id="Fill-63" points="102.807 8.52651283e-14 99.292 7.031 106.322 7.031"></polygon>
            <polygon id="Fill-64" points="109.2133 36.7969 112.7293 29.7649 116.2443 36.7969"></polygon>
            <polygon id="Fill-65" points="99.2914 26.875 102.8074 19.844 106.3224 26.875"></polygon>
            <polygon id="Fill-66" points="129.1312 16.9531 132.6472 9.9221 136.1622 16.9531"></polygon>
            <polygon id="Fill-67" points="142.569 8.52651283e-14 139.053 7.031 146.084 7.031"></polygon>
            <polygon id="Fill-68" points="129.1312 36.7969 132.6472 29.7649 136.1622 36.7969"></polygon>
            <polygon id="Fill-69" points="139.0531 26.875 142.5691 19.844 146.0841 26.875"></polygon>
            <polygon id="Fill-70" points="122.7249 8.52651283e-14 119.2099 7.031 126.2399 7.031"></polygon>
            <polygon id="Fill-71" points="119.2094 26.875 122.7254 19.844 126.2404 26.875"></polygon>
            <polygon id="Fill-72" points="109.2133 56.6396 112.7293 49.6086 116.2443 56.6396"></polygon>
            <polygon id="Fill-73" points="99.2914 46.7177 102.8074 39.6867 106.3224 46.7177"></polygon>
            <polygon id="Fill-74" points="109.2133 76.4834 112.7293 69.4524 116.2443 76.4834"></polygon>
            <polygon id="Fill-75" points="99.2914 66.5615 102.8074 59.5305 106.3224 66.5615"></polygon>
            <polygon id="Fill-76" points="129.1312 56.6396 132.6472 49.6086 136.1622 56.6396"></polygon>
            <polygon id="Fill-77" points="139.0531 46.7177 142.5691 39.6867 146.0841 46.7177"></polygon>
            <polygon id="Fill-78" points="129.1312 76.4834 132.6472 69.4514 136.1622 76.4834"></polygon>
            <polygon id="Fill-79" points="139.0531 66.5615 142.5691 59.5305 146.0841 66.5615"></polygon>
            <polygon id="Fill-80" points="119.2094 46.7177 122.7254 39.6867 126.2404 46.7177"></polygon>
            <polygon id="Fill-81" points="119.2094 66.5615 122.7254 59.5305 126.2404 66.5615"></polygon>
            <polygon id="Fill-82" points="158.8959 86.4052 162.4129 79.3732 165.9279 86.4052"></polygon>
            <polygon id="Fill-83" points="178.8138 86.4054 185.8458 86.4054 185.8458 86.4034 182.3298 79.3734"></polygon>
            <polygon id="Fill-84" points="99.2914 86.4052 102.8074 79.3732 106.3224 86.4052"></polygon>
            <polygon id="Fill-85" points="139.0531 86.4052 142.5691 79.3742 146.0841 86.4052"></polygon>
            <polygon id="Fill-86" points="119.2094 86.4052 122.7254 79.3742 126.2404 86.4052"></polygon>
            <polygon id="Fill-87" points="29.765 136.0127 33.281 128.9817 36.796 136.0137"></polygon>
            <polygon id="Fill-88" points="49.6088 136.0137 53.1248 128.9817 56.6398 136.0137"></polygon>
            <polygon id="Fill-89" points="39.6869 126.0918 43.2029 119.0608 46.7179 126.0918"></polygon>
            <polygon id="Fill-90" points="29.765 155.8564 33.281 148.8254 36.796 155.8564"></polygon>
            <polygon id="Fill-91" points="49.6088 155.8564 53.1248 148.8254 56.6398 155.8564"></polygon>
            <polygon id="Fill-92" points="39.6869 145.9346 43.2029 138.9036 46.7179 145.9346"></polygon>
            <polygon id="Fill-93" points="69.5268 136.0137 73.0428 128.9817 76.5578 136.0137"></polygon>
            <polygon id="Fill-94" points="89.3695 136.0137 92.8855 128.9817 96.4015 136.0137"></polygon>
            <polygon id="Fill-95" points="79.4486 126.0918 82.9646 119.0608 86.4796 126.0918"></polygon>
            <polygon id="Fill-96" points="69.5268 155.8564 73.0428 148.8254 76.5578 155.8564"></polygon>
            <polygon id="Fill-97" points="89.3695 155.8564 92.8855 148.8254 96.4015 155.8564"></polygon>
            <polygon id="Fill-98" points="79.4486 145.9346 82.9646 138.9036 86.4796 145.9346"></polygon>
            <polygon id="Fill-99" points="59.6049 126.0918 63.1209 119.0608 66.6359 126.0918"></polygon>
            <polygon id="Fill-100" points="59.6049 145.9346 63.1209 138.9036 66.6359 145.9346"></polygon>
            <polygon id="Fill-101" points="39.6873 165.7782 46.7183 165.7782 43.2023 158.7472"></polygon>
            <polygon id="Fill-102" points="79.4484 165.7782 86.4804 165.7782 82.9644 158.7472"></polygon>
            <polygon id="Fill-103" points="59.6052 165.7782 66.6362 165.7782 63.1202 158.7472"></polygon>
            <polygon id="Fill-104" points="9.9223 136.0127 13.4383 128.9817 16.9533 136.0127"></polygon>
            <polygon id="Fill-105" points="19.8432 126.0918 23.3592 119.0608 26.8752 126.0918"></polygon>
            <polygon id="Fill-106" points="9.9213 155.8564 13.4383 148.8254 16.9533 155.8564"></polygon>
            <polygon id="Fill-107" points="19.8432 145.9346 23.3592 138.9036 26.8752 145.9346"></polygon>
            <polygon id="Fill-108" points="7.63833441e-14 126.0918 7.032 126.0918 3.516 119.0598"></polygon>
            <polygon id="Fill-109" points="7.63833441e-14 145.935 7.032 145.935 3.516 138.903"></polygon>
            <polygon id="Fill-110" points="29.765 96.3261 33.281 89.2951 36.796 96.3261"></polygon>
            <polygon id="Fill-111" points="49.6088 96.3261 53.1248 89.2951 56.6398 96.3261"></polygon>
            <polygon id="Fill-112" points="29.765 116.1699 33.281 109.1389 36.796 116.1699"></polygon>
            <polygon id="Fill-113" points="49.6088 116.1699 53.1248 109.1389 56.6398 116.1699"></polygon>
            <polygon id="Fill-114" points="39.6869 106.248 43.2029 99.217 46.7179 106.248"></polygon>
            <polygon id="Fill-115" points="69.5268 96.3261 73.0428 89.2951 76.5578 96.3261"></polygon>
            <polygon id="Fill-116" points="89.3695 96.3261 92.8865 89.2951 96.4015 96.3261"></polygon>
            <polygon id="Fill-117" points="69.5268 116.1699 73.0428 109.1389 76.5578 116.1699"></polygon>
            <polygon id="Fill-118" points="89.3695 116.1699 92.8855 109.1389 96.4015 116.1699"></polygon>
            <polygon id="Fill-119" points="79.4486 106.248 82.9646 99.217 86.4796 106.248"></polygon>
            <polygon id="Fill-120" points="59.6049 106.248 63.1209 99.217 66.6359 106.248"></polygon>
            <polygon id="Fill-121" points="9.9223 96.3261 13.4383 89.2951 16.9533 96.3261"></polygon>
            <polygon id="Fill-122" points="9.9213 116.1699 13.4383 109.1389 16.9533 116.1699"></polygon>
            <polygon id="Fill-123" points="19.8432 106.248 23.3592 99.217 26.8752 106.248"></polygon>
            <polygon id="Fill-124" points="7.63833441e-14 106.2477 7.032 106.2477 3.516 99.2167"></polygon>
            <polygon id="Fill-125" points="19.8432 165.7782 26.8742 165.7782 23.3582 158.7472"></polygon>
            <polygon id="Fill-126" points="7.63833441e-14 165.7782 7.032 165.7782 3.516 158.7472"></polygon>
            <polygon id="Fill-127" points="148.975 136.0137 152.491 128.9817 156.006 136.0137"></polygon>
            <polygon id="Fill-128" points="168.8178 136.0137 172.3338 128.9817 175.8488 136.0137"></polygon>
            <polygon id="Fill-129" points="158.8959 126.0918 162.4119 119.0608 165.9279 126.0918"></polygon>
            <polygon id="Fill-130" points="148.975 155.8564 152.491 148.8254 156.006 155.8564"></polygon>
            <polygon id="Fill-131" points="168.8178 155.8564 172.3338 148.8254 175.8488 155.8564"></polygon>
            <polygon id="Fill-132" points="158.8959 145.9346 162.4119 138.9036 165.9279 145.9346"></polygon>
            <polygon id="Fill-133" points="178.8138 126.0918 185.8458 126.0918 185.8458 126.0898 182.3298 119.0598"></polygon>
            <polygon id="Fill-134" points="178.8138 145.935 185.8458 145.935 185.8458 145.933 182.3298 138.903"></polygon>
            <polygon id="Fill-135" points="158.8959 165.7782 165.9289 165.7782 162.4109 158.7472"></polygon>
            <polygon id="Fill-136" points="178.8147 165.7782 185.8457 165.7782 185.8457 165.7762 182.3297 158.7472"></polygon>
            <polygon id="Fill-137" points="109.2133 136.0137 112.7293 128.9817 116.2443 136.0137"></polygon>
            <polygon id="Fill-138" points="99.2914 126.0918 102.8074 119.0608 106.3224 126.0918"></polygon>
            <polygon id="Fill-139" points="109.2133 155.8564 112.7293 148.8254 116.2443 155.8564"></polygon>
            <polygon id="Fill-140" points="99.2914 145.9346 102.8074 138.9036 106.3224 145.9346"></polygon>
            <polygon id="Fill-141" points="129.1312 136.0137 132.6472 128.9817 136.1622 136.0137"></polygon>
            <polygon id="Fill-142" points="139.0531 126.0918 142.5691 119.0608 146.0841 126.0918"></polygon>
            <polygon id="Fill-143" points="129.1312 155.8564 132.6472 148.8254 136.1622 155.8564"></polygon>
            <polygon id="Fill-144" points="139.0531 145.9346 142.5691 138.9036 146.0841 145.9346"></polygon>
            <polygon id="Fill-145" points="119.2094 126.0918 122.7254 119.0608 126.2404 126.0918"></polygon>
            <polygon id="Fill-146" points="119.2094 145.9346 122.7254 138.9036 126.2404 145.9346"></polygon>
            <polygon id="Fill-147" points="148.975 96.3261 152.491 89.2951 156.006 96.3261"></polygon>
            <polygon id="Fill-148" points="168.8178 96.3261 172.3338 89.2951 175.8488 96.3261"></polygon>
            <polygon id="Fill-149" points="148.975 116.1699 152.491 109.1389 156.006 116.1699"></polygon>
            <polygon id="Fill-150" points="168.8178 116.1699 172.3338 109.1389 175.8488 116.1699"></polygon>
            <polygon id="Fill-151" points="158.8959 106.248 162.4119 99.217 165.9279 106.248"></polygon>
            <polygon id="Fill-152" points="178.8138 106.2477 185.8458 106.2477 185.8458 106.2457 182.3298 99.2167"></polygon>
            <polygon id="Fill-153" points="109.2133 96.3261 112.7293 89.2951 116.2443 96.3261"></polygon>
            <polygon id="Fill-154" points="109.2133 116.1699 112.7293 109.1389 116.2443 116.1699"></polygon>
            <polygon id="Fill-155" points="99.2914 106.248 102.8074 99.217 106.3224 106.248"></polygon>
            <polygon id="Fill-156" points="129.1312 96.3261 132.6472 89.2951 136.1622 96.3261"></polygon>
            <polygon id="Fill-157" points="129.1312 116.1699 132.6472 109.1389 136.1622 116.1699"></polygon>
            <polygon id="Fill-158" points="139.0531 106.248 142.5691 99.217 146.0841 106.248"></polygon>
            <polygon id="Fill-159" points="119.2094 106.248 122.7254 99.217 126.2404 106.248"></polygon>
            <polygon id="Fill-160" points="99.2916 165.7782 106.3226 165.7782 102.8066 158.7472"></polygon>
            <polygon id="Fill-161" points="139.0527 165.7782 146.0847 165.7782 142.5687 158.7472"></polygon>
            <polygon id="Fill-162" points="119.2095 165.7782 126.2405 165.7782 122.7245 158.7472"></polygon>
        </g>
        <g id="Group-Copy-3" transform="translate(182.000000, 3.000000)" fill="#000000">
            <polygon id="Fill-1" points="29.765 16.9531 33.281 9.9221 36.796 16.9531"></polygon>
            <polygon id="Fill-2" points="49.6088 16.9531 53.1248 9.9221 56.6398 16.9531"></polygon>
            <polygon id="Fill-3" points="43.2027 8.52651283e-14 39.6877 7.031 46.7177 7.031"></polygon>
            <polygon id="Fill-4" points="29.765 36.7969 33.281 29.7649 36.796 36.7969"></polygon>
            <polygon id="Fill-5" points="49.6088 36.7969 53.1248 29.7649 56.6398 36.7969"></polygon>
            <polygon id="Fill-6" points="39.6869 26.875 43.2029 19.844 46.7179 26.875"></polygon>
            <polygon id="Fill-7" points="69.5268 16.9531 73.0428 9.9221 76.5578 16.9531"></polygon>
            <polygon id="Fill-8" points="89.3695 16.9531 92.8865 9.9221 96.4015 16.9531"></polygon>
            <polygon id="Fill-9" points="82.9647 8.52651283e-14 79.4487 7.031 86.4797 7.031"></polygon>
            <polygon id="Fill-10" points="69.5268 36.7969 73.0428 29.7649 76.5578 36.7969"></polygon>
            <polygon id="Fill-11" points="89.3695 36.7969 92.8865 29.7649 96.4015 36.7969"></polygon>
            <polygon id="Fill-12" points="79.4486 26.875 82.9646 19.844 86.4796 26.875"></polygon>
            <polygon id="Fill-13" points="63.1206 8.52651283e-14 59.6056 7.031 66.6356 7.031"></polygon>
            <polygon id="Fill-14" points="59.6049 26.875 63.1209 19.844 66.6359 26.875"></polygon>
            <polygon id="Fill-15" points="29.765 56.6396 33.281 49.6086 36.796 56.6396"></polygon>
            <polygon id="Fill-16" points="49.6088 56.6396 53.1248 49.6086 56.6398 56.6396"></polygon>
            <polygon id="Fill-17" points="39.6869 46.7177 43.2029 39.6867 46.7179 46.7177"></polygon>
            <polygon id="Fill-18" points="29.765 76.4834 33.281 69.4524 36.796 76.4834"></polygon>
            <polygon id="Fill-19" points="49.6088 76.4834 53.1248 69.4524 56.6398 76.4834"></polygon>
            <polygon id="Fill-20" points="39.6869 66.5615 43.2029 59.5305 46.7179 66.5615"></polygon>
            <polygon id="Fill-21" points="69.5268 56.6396 73.0428 49.6086 76.5578 56.6396"></polygon>
            <polygon id="Fill-22" points="89.3695 56.6396 92.8865 49.6086 96.4015 56.6396"></polygon>
            <polygon id="Fill-23" points="79.4486 46.7177 82.9646 39.6867 86.4796 46.7177"></polygon>
            <polygon id="Fill-24" points="69.5268 76.4834 73.0428 69.4514 76.5578 76.4834"></polygon>
            <polygon id="Fill-25" points="89.3695 76.4834 92.8865 69.4524 96.4015 76.4834"></polygon>
            <polygon id="Fill-26" points="79.4486 66.5615 82.9646 59.5305 86.4796 66.5615"></polygon>
            <polygon id="Fill-27" points="59.6049 46.7177 63.1209 39.6867 66.6359 46.7177"></polygon>
            <polygon id="Fill-28" points="59.6049 66.5615 63.1209 59.5305 66.6359 66.5615"></polygon>
            <polygon id="Fill-29" points="9.9213 16.9531 13.4383 9.9221 16.9533 16.9531"></polygon>
            <polygon id="Fill-30" points="23.3586 8.52651283e-14 19.8436 7.031 26.8736 7.031"></polygon>
            <polygon id="Fill-31" points="9.9223 36.7969 13.4383 29.7649 16.9533 36.7969"></polygon>
            <polygon id="Fill-32" points="19.8432 26.875 23.3592 19.844 26.8752 26.875"></polygon>
            <polygon id="Fill-33" points="3.5163 8.52651283e-14 0.0003 7.031 7.0313 7.031"></polygon>
            <polygon id="Fill-34" points="7.63833441e-14 26.8749 7.032 26.8749 3.516 19.8439"></polygon>
            <polygon id="Fill-35" points="9.9213 56.6396 13.4383 49.6086 16.9533 56.6396"></polygon>
            <polygon id="Fill-36" points="19.8432 46.7177 23.3592 39.6867 26.8752 46.7177"></polygon>
            <polygon id="Fill-37" points="9.9213 76.4834 13.4383 69.4514 16.9533 76.4834"></polygon>
            <polygon id="Fill-38" points="19.8432 66.5615 23.3592 59.5305 26.8742 66.5615"></polygon>
            <polygon id="Fill-39" points="7.63833441e-14 46.7181 7.032 46.7181 3.516 39.6861"></polygon>
            <polygon id="Fill-40" points="7.63833441e-14 66.5613 7.032 66.5613 3.516 59.5303"></polygon>
            <polygon id="Fill-41" points="39.6869 86.4052 43.2029 79.3732 46.7179 86.4052"></polygon>
            <polygon id="Fill-42" points="79.4486 86.4052 82.9646 79.3742 86.4796 86.4052"></polygon>
            <polygon id="Fill-43" points="59.6049 86.4052 63.1209 79.3742 66.6359 86.4052"></polygon>
            <polygon id="Fill-44" points="19.8432 86.4052 23.3592 79.3742 26.8752 86.4052"></polygon>
            <polygon id="Fill-45" points="7.63833441e-14 86.4054 7.032 86.4054 3.516 79.3734"></polygon>
            <polygon id="Fill-46" points="148.975 16.9531 152.491 9.9221 156.006 16.9531"></polygon>
            <polygon id="Fill-47" points="168.8178 16.9531 172.3338 9.9221 175.8488 16.9531"></polygon>
            <polygon id="Fill-48" points="162.4122 8.52651283e-14 158.8962 7.031 165.9282 7.031"></polygon>
            <polygon id="Fill-49" points="148.975 36.7969 152.491 29.7649 156.006 36.7969"></polygon>
            <polygon id="Fill-50" points="168.8178 36.7969 172.3338 29.7659 175.8488 36.7969"></polygon>
            <polygon id="Fill-51" points="158.8959 26.875 162.4129 19.844 165.9279 26.875"></polygon>
            <polygon id="Fill-52" points="182.3301 8.52651283e-14 178.8151 7.031 185.8451 7.031 185.8451 7.029"></polygon>
            <polygon id="Fill-53" points="178.8138 26.8749 185.8458 26.8749 185.8458 26.8729 182.3298 19.8439"></polygon>
            <polygon id="Fill-54" points="148.975 56.6396 152.491 49.6086 156.006 56.6396"></polygon>
            <polygon id="Fill-55" points="168.8178 56.6396 172.3338 49.6086 175.8488 56.6396"></polygon>
            <polygon id="Fill-56" points="158.8959 46.7177 162.4129 39.6867 165.9279 46.7177"></polygon>
            <polygon id="Fill-57" points="148.975 76.4834 152.491 69.4524 156.006 76.4834"></polygon>
            <polygon id="Fill-58" points="168.8178 76.4834 172.3338 69.4524 175.8488 76.4834"></polygon>
            <polygon id="Fill-59" points="158.8959 66.5615 162.4129 59.5305 165.9279 66.5615"></polygon>
            <polygon id="Fill-60" points="178.8138 46.7181 185.8458 46.7191 185.8458 46.7171 182.3298 39.6861"></polygon>
            <polygon id="Fill-61" points="178.8147 66.5613 185.8457 66.5613 185.8457 66.5593 182.3297 59.5303"></polygon>
            <polygon id="Fill-62" points="109.2133 16.9531 112.7293 9.9221 116.2443 16.9531"></polygon>
            <polygon id="Fill-63" points="102.807 8.52651283e-14 99.292 7.031 106.322 7.031"></polygon>
            <polygon id="Fill-64" points="109.2133 36.7969 112.7293 29.7649 116.2443 36.7969"></polygon>
            <polygon id="Fill-65" points="99.2914 26.875 102.8074 19.844 106.3224 26.875"></polygon>
            <polygon id="Fill-66" points="129.1312 16.9531 132.6472 9.9221 136.1622 16.9531"></polygon>
            <polygon id="Fill-67" points="142.569 8.52651283e-14 139.053 7.031 146.084 7.031"></polygon>
            <polygon id="Fill-68" points="129.1312 36.7969 132.6472 29.7649 136.1622 36.7969"></polygon>
            <polygon id="Fill-69" points="139.0531 26.875 142.5691 19.844 146.0841 26.875"></polygon>
            <polygon id="Fill-70" points="122.7249 8.52651283e-14 119.2099 7.031 126.2399 7.031"></polygon>
            <polygon id="Fill-71" points="119.2094 26.875 122.7254 19.844 126.2404 26.875"></polygon>
            <polygon id="Fill-72" points="109.2133 56.6396 112.7293 49.6086 116.2443 56.6396"></polygon>
            <polygon id="Fill-73" points="99.2914 46.7177 102.8074 39.6867 106.3224 46.7177"></polygon>
            <polygon id="Fill-74" points="109.2133 76.4834 112.7293 69.4524 116.2443 76.4834"></polygon>
            <polygon id="Fill-75" points="99.2914 66.5615 102.8074 59.5305 106.3224 66.5615"></polygon>
            <polygon id="Fill-76" points="129.1312 56.6396 132.6472 49.6086 136.1622 56.6396"></polygon>
            <polygon id="Fill-77" points="139.0531 46.7177 142.5691 39.6867 146.0841 46.7177"></polygon>
            <polygon id="Fill-78" points="129.1312 76.4834 132.6472 69.4514 136.1622 76.4834"></polygon>
            <polygon id="Fill-79" points="139.0531 66.5615 142.5691 59.5305 146.0841 66.5615"></polygon>
            <polygon id="Fill-80" points="119.2094 46.7177 122.7254 39.6867 126.2404 46.7177"></polygon>
            <polygon id="Fill-81" points="119.2094 66.5615 122.7254 59.5305 126.2404 66.5615"></polygon>
            <polygon id="Fill-82" points="158.8959 86.4052 162.4129 79.3732 165.9279 86.4052"></polygon>
            <polygon id="Fill-83" points="178.8138 86.4054 185.8458 86.4054 185.8458 86.4034 182.3298 79.3734"></polygon>
            <polygon id="Fill-84" points="99.2914 86.4052 102.8074 79.3732 106.3224 86.4052"></polygon>
            <polygon id="Fill-85" points="139.0531 86.4052 142.5691 79.3742 146.0841 86.4052"></polygon>
            <polygon id="Fill-86" points="119.2094 86.4052 122.7254 79.3742 126.2404 86.4052"></polygon>
            <polygon id="Fill-87" points="29.765 136.0127 33.281 128.9817 36.796 136.0137"></polygon>
            <polygon id="Fill-88" points="49.6088 136.0137 53.1248 128.9817 56.6398 136.0137"></polygon>
            <polygon id="Fill-89" points="39.6869 126.0918 43.2029 119.0608 46.7179 126.0918"></polygon>
            <polygon id="Fill-90" points="29.765 155.8564 33.281 148.8254 36.796 155.8564"></polygon>
            <polygon id="Fill-91" points="49.6088 155.8564 53.1248 148.8254 56.6398 155.8564"></polygon>
            <polygon id="Fill-92" points="39.6869 145.9346 43.2029 138.9036 46.7179 145.9346"></polygon>
            <polygon id="Fill-93" points="69.5268 136.0137 73.0428 128.9817 76.5578 136.0137"></polygon>
            <polygon id="Fill-94" points="89.3695 136.0137 92.8855 128.9817 96.4015 136.0137"></polygon>
            <polygon id="Fill-95" points="79.4486 126.0918 82.9646 119.0608 86.4796 126.0918"></polygon>
            <polygon id="Fill-96" points="69.5268 155.8564 73.0428 148.8254 76.5578 155.8564"></polygon>
            <polygon id="Fill-97" points="89.3695 155.8564 92.8855 148.8254 96.4015 155.8564"></polygon>
            <polygon id="Fill-98" points="79.4486 145.9346 82.9646 138.9036 86.4796 145.9346"></polygon>
            <polygon id="Fill-99" points="59.6049 126.0918 63.1209 119.0608 66.6359 126.0918"></polygon>
            <polygon id="Fill-100" points="59.6049 145.9346 63.1209 138.9036 66.6359 145.9346"></polygon>
            <polygon id="Fill-101" points="39.6873 165.7782 46.7183 165.7782 43.2023 158.7472"></polygon>
            <polygon id="Fill-102" points="79.4484 165.7782 86.4804 165.7782 82.9644 158.7472"></polygon>
            <polygon id="Fill-103" points="59.6052 165.7782 66.6362 165.7782 63.1202 158.7472"></polygon>
            <polygon id="Fill-104" points="9.9223 136.0127 13.4383 128.9817 16.9533 136.0127"></polygon>
            <polygon id="Fill-105" points="19.8432 126.0918 23.3592 119.0608 26.8752 126.0918"></polygon>
            <polygon id="Fill-106" points="9.9213 155.8564 13.4383 148.8254 16.9533 155.8564"></polygon>
            <polygon id="Fill-107" points="19.8432 145.9346 23.3592 138.9036 26.8752 145.9346"></polygon>
            <polygon id="Fill-108" points="7.63833441e-14 126.0918 7.032 126.0918 3.516 119.0598"></polygon>
            <polygon id="Fill-109" points="7.63833441e-14 145.935 7.032 145.935 3.516 138.903"></polygon>
            <polygon id="Fill-110" points="29.765 96.3261 33.281 89.2951 36.796 96.3261"></polygon>
            <polygon id="Fill-111" points="49.6088 96.3261 53.1248 89.2951 56.6398 96.3261"></polygon>
            <polygon id="Fill-112" points="29.765 116.1699 33.281 109.1389 36.796 116.1699"></polygon>
            <polygon id="Fill-113" points="49.6088 116.1699 53.1248 109.1389 56.6398 116.1699"></polygon>
            <polygon id="Fill-114" points="39.6869 106.248 43.2029 99.217 46.7179 106.248"></polygon>
            <polygon id="Fill-115" points="69.5268 96.3261 73.0428 89.2951 76.5578 96.3261"></polygon>
            <polygon id="Fill-116" points="89.3695 96.3261 92.8865 89.2951 96.4015 96.3261"></polygon>
            <polygon id="Fill-117" points="69.5268 116.1699 73.0428 109.1389 76.5578 116.1699"></polygon>
            <polygon id="Fill-118" points="89.3695 116.1699 92.8855 109.1389 96.4015 116.1699"></polygon>
            <polygon id="Fill-119" points="79.4486 106.248 82.9646 99.217 86.4796 106.248"></polygon>
            <polygon id="Fill-120" points="59.6049 106.248 63.1209 99.217 66.6359 106.248"></polygon>
            <polygon id="Fill-121" points="9.9223 96.3261 13.4383 89.2951 16.9533 96.3261"></polygon>
            <polygon id="Fill-122" points="9.9213 116.1699 13.4383 109.1389 16.9533 116.1699"></polygon>
            <polygon id="Fill-123" points="19.8432 106.248 23.3592 99.217 26.8752 106.248"></polygon>
            <polygon id="Fill-124" points="7.63833441e-14 106.2477 7.032 106.2477 3.516 99.2167"></polygon>
            <polygon id="Fill-125" points="19.8432 165.7782 26.8742 165.7782 23.3582 158.7472"></polygon>
            <polygon id="Fill-126" points="7.63833441e-14 165.7782 7.032 165.7782 3.516 158.7472"></polygon>
            <polygon id="Fill-127" points="148.975 136.0137 152.491 128.9817 156.006 136.0137"></polygon>
            <polygon id="Fill-128" points="168.8178 136.0137 172.3338 128.9817 175.8488 136.0137"></polygon>
            <polygon id="Fill-129" points="158.8959 126.0918 162.4119 119.0608 165.9279 126.0918"></polygon>
            <polygon id="Fill-130" points="148.975 155.8564 152.491 148.8254 156.006 155.8564"></polygon>
            <polygon id="Fill-131" points="168.8178 155.8564 172.3338 148.8254 175.8488 155.8564"></polygon>
            <polygon id="Fill-132" points="158.8959 145.9346 162.4119 138.9036 165.9279 145.9346"></polygon>
            <polygon id="Fill-133" points="178.8138 126.0918 185.8458 126.0918 185.8458 126.0898 182.3298 119.0598"></polygon>
            <polygon id="Fill-134" points="178.8138 145.935 185.8458 145.935 185.8458 145.933 182.3298 138.903"></polygon>
            <polygon id="Fill-135" points="158.8959 165.7782 165.9289 165.7782 162.4109 158.7472"></polygon>
            <polygon id="Fill-136" points="178.8147 165.7782 185.8457 165.7782 185.8457 165.7762 182.3297 158.7472"></polygon>
            <polygon id="Fill-137" points="109.2133 136.0137 112.7293 128.9817 116.2443 136.0137"></polygon>
            <polygon id="Fill-138" points="99.2914 126.0918 102.8074 119.0608 106.3224 126.0918"></polygon>
            <polygon id="Fill-139" points="109.2133 155.8564 112.7293 148.8254 116.2443 155.8564"></polygon>
            <polygon id="Fill-140" points="99.2914 145.9346 102.8074 138.9036 106.3224 145.9346"></polygon>
            <polygon id="Fill-141" points="129.1312 136.0137 132.6472 128.9817 136.1622 136.0137"></polygon>
            <polygon id="Fill-142" points="139.0531 126.0918 142.5691 119.0608 146.0841 126.0918"></polygon>
            <polygon id="Fill-143" points="129.1312 155.8564 132.6472 148.8254 136.1622 155.8564"></polygon>
            <polygon id="Fill-144" points="139.0531 145.9346 142.5691 138.9036 146.0841 145.9346"></polygon>
            <polygon id="Fill-145" points="119.2094 126.0918 122.7254 119.0608 126.2404 126.0918"></polygon>
            <polygon id="Fill-146" points="119.2094 145.9346 122.7254 138.9036 126.2404 145.9346"></polygon>
            <polygon id="Fill-147" points="148.975 96.3261 152.491 89.2951 156.006 96.3261"></polygon>
            <polygon id="Fill-148" points="168.8178 96.3261 172.3338 89.2951 175.8488 96.3261"></polygon>
            <polygon id="Fill-149" points="148.975 116.1699 152.491 109.1389 156.006 116.1699"></polygon>
            <polygon id="Fill-150" points="168.8178 116.1699 172.3338 109.1389 175.8488 116.1699"></polygon>
            <polygon id="Fill-151" points="158.8959 106.248 162.4119 99.217 165.9279 106.248"></polygon>
            <polygon id="Fill-152" points="178.8138 106.2477 185.8458 106.2477 185.8458 106.2457 182.3298 99.2167"></polygon>
            <polygon id="Fill-153" points="109.2133 96.3261 112.7293 89.2951 116.2443 96.3261"></polygon>
            <polygon id="Fill-154" points="109.2133 116.1699 112.7293 109.1389 116.2443 116.1699"></polygon>
            <polygon id="Fill-155" points="99.2914 106.248 102.8074 99.217 106.3224 106.248"></polygon>
            <polygon id="Fill-156" points="129.1312 96.3261 132.6472 89.2951 136.1622 96.3261"></polygon>
            <polygon id="Fill-157" points="129.1312 116.1699 132.6472 109.1389 136.1622 116.1699"></polygon>
            <polygon id="Fill-158" points="139.0531 106.248 142.5691 99.217 146.0841 106.248"></polygon>
            <polygon id="Fill-159" points="119.2094 106.248 122.7254 99.217 126.2404 106.248"></polygon>
            <polygon id="Fill-160" points="99.2916 165.7782 106.3226 165.7782 102.8066 158.7472"></polygon>
            <polygon id="Fill-161" points="139.0527 165.7782 146.0847 165.7782 142.5687 158.7472"></polygon>
            <polygon id="Fill-162" points="119.2095 165.7782 126.2405 165.7782 122.7245 158.7472"></polygon>
        </g>
        <g id="Group-Copy" transform="translate(3.000000, 162.000000)" fill="#000000">
            <polygon id="Fill-1" points="29.765 16.9531 33.281 9.9221 36.796 16.9531"></polygon>
            <polygon id="Fill-2" points="49.6088 16.9531 53.1248 9.9221 56.6398 16.9531"></polygon>
            <polygon id="Fill-3" points="43.2027 8.52651283e-14 39.6877 7.031 46.7177 7.031"></polygon>
            <polygon id="Fill-4" points="29.765 36.7969 33.281 29.7649 36.796 36.7969"></polygon>
            <polygon id="Fill-5" points="49.6088 36.7969 53.1248 29.7649 56.6398 36.7969"></polygon>
            <polygon id="Fill-6" points="39.6869 26.875 43.2029 19.844 46.7179 26.875"></polygon>
            <polygon id="Fill-7" points="69.5268 16.9531 73.0428 9.9221 76.5578 16.9531"></polygon>
            <polygon id="Fill-8" points="89.3695 16.9531 92.8865 9.9221 96.4015 16.9531"></polygon>
            <polygon id="Fill-9" points="82.9647 8.52651283e-14 79.4487 7.031 86.4797 7.031"></polygon>
            <polygon id="Fill-10" points="69.5268 36.7969 73.0428 29.7649 76.5578 36.7969"></polygon>
            <polygon id="Fill-11" points="89.3695 36.7969 92.8865 29.7649 96.4015 36.7969"></polygon>
            <polygon id="Fill-12" points="79.4486 26.875 82.9646 19.844 86.4796 26.875"></polygon>
            <polygon id="Fill-13" points="63.1206 8.52651283e-14 59.6056 7.031 66.6356 7.031"></polygon>
            <polygon id="Fill-14" points="59.6049 26.875 63.1209 19.844 66.6359 26.875"></polygon>
            <polygon id="Fill-15" points="29.765 56.6396 33.281 49.6086 36.796 56.6396"></polygon>
            <polygon id="Fill-16" points="49.6088 56.6396 53.1248 49.6086 56.6398 56.6396"></polygon>
            <polygon id="Fill-17" points="39.6869 46.7177 43.2029 39.6867 46.7179 46.7177"></polygon>
            <polygon id="Fill-18" points="29.765 76.4834 33.281 69.4524 36.796 76.4834"></polygon>
            <polygon id="Fill-19" points="49.6088 76.4834 53.1248 69.4524 56.6398 76.4834"></polygon>
            <polygon id="Fill-20" points="39.6869 66.5615 43.2029 59.5305 46.7179 66.5615"></polygon>
            <polygon id="Fill-21" points="69.5268 56.6396 73.0428 49.6086 76.5578 56.6396"></polygon>
            <polygon id="Fill-22" points="89.3695 56.6396 92.8865 49.6086 96.4015 56.6396"></polygon>
            <polygon id="Fill-23" points="79.4486 46.7177 82.9646 39.6867 86.4796 46.7177"></polygon>
            <polygon id="Fill-24" points="69.5268 76.4834 73.0428 69.4514 76.5578 76.4834"></polygon>
            <polygon id="Fill-25" points="89.3695 76.4834 92.8865 69.4524 96.4015 76.4834"></polygon>
            <polygon id="Fill-26" points="79.4486 66.5615 82.9646 59.5305 86.4796 66.5615"></polygon>
            <polygon id="Fill-27" points="59.6049 46.7177 63.1209 39.6867 66.6359 46.7177"></polygon>
            <polygon id="Fill-28" points="59.6049 66.5615 63.1209 59.5305 66.6359 66.5615"></polygon>
            <polygon id="Fill-29" points="9.9213 16.9531 13.4383 9.9221 16.9533 16.9531"></polygon>
            <polygon id="Fill-30" points="23.3586 8.52651283e-14 19.8436 7.031 26.8736 7.031"></polygon>
            <polygon id="Fill-31" points="9.9223 36.7969 13.4383 29.7649 16.9533 36.7969"></polygon>
            <polygon id="Fill-32" points="19.8432 26.875 23.3592 19.844 26.8752 26.875"></polygon>
            <polygon id="Fill-33" points="3.5163 8.52651283e-14 0.0003 7.031 7.0313 7.031"></polygon>
            <polygon id="Fill-34" points="7.63833441e-14 26.8749 7.032 26.8749 3.516 19.8439"></polygon>
            <polygon id="Fill-35" points="9.9213 56.6396 13.4383 49.6086 16.9533 56.6396"></polygon>
            <polygon id="Fill-36" points="19.8432 46.7177 23.3592 39.6867 26.8752 46.7177"></polygon>
            <polygon id="Fill-37" points="9.9213 76.4834 13.4383 69.4514 16.9533 76.4834"></polygon>
            <polygon id="Fill-38" points="19.8432 66.5615 23.3592 59.5305 26.8742 66.5615"></polygon>
            <polygon id="Fill-39" points="7.63833441e-14 46.7181 7.032 46.7181 3.516 39.6861"></polygon>
            <polygon id="Fill-40" points="7.63833441e-14 66.5613 7.032 66.5613 3.516 59.5303"></polygon>
            <polygon id="Fill-41" points="39.6869 86.4052 43.2029 79.3732 46.7179 86.4052"></polygon>
            <polygon id="Fill-42" points="79.4486 86.4052 82.9646 79.3742 86.4796 86.4052"></polygon>
            <polygon id="Fill-43" points="59.6049 86.4052 63.1209 79.3742 66.6359 86.4052"></polygon>
            <polygon id="Fill-44" points="19.8432 86.4052 23.3592 79.3742 26.8752 86.4052"></polygon>
            <polygon id="Fill-45" points="7.63833441e-14 86.4054 7.032 86.4054 3.516 79.3734"></polygon>
            <polygon id="Fill-46" points="148.975 16.9531 152.491 9.9221 156.006 16.9531"></polygon>
            <polygon id="Fill-47" points="168.8178 16.9531 172.3338 9.9221 175.8488 16.9531"></polygon>
            <polygon id="Fill-48" points="162.4122 8.52651283e-14 158.8962 7.031 165.9282 7.031"></polygon>
            <polygon id="Fill-49" points="148.975 36.7969 152.491 29.7649 156.006 36.7969"></polygon>
            <polygon id="Fill-50" points="168.8178 36.7969 172.3338 29.7659 175.8488 36.7969"></polygon>
            <polygon id="Fill-51" points="158.8959 26.875 162.4129 19.844 165.9279 26.875"></polygon>
            <polygon id="Fill-52" points="182.3301 8.52651283e-14 178.8151 7.031 185.8451 7.031 185.8451 7.029"></polygon>
            <polygon id="Fill-53" points="178.8138 26.8749 185.8458 26.8749 185.8458 26.8729 182.3298 19.8439"></polygon>
            <polygon id="Fill-54" points="148.975 56.6396 152.491 49.6086 156.006 56.6396"></polygon>
            <polygon id="Fill-55" points="168.8178 56.6396 172.3338 49.6086 175.8488 56.6396"></polygon>
            <polygon id="Fill-56" points="158.8959 46.7177 162.4129 39.6867 165.9279 46.7177"></polygon>
            <polygon id="Fill-57" points="148.975 76.4834 152.491 69.4524 156.006 76.4834"></polygon>
            <polygon id="Fill-58" points="168.8178 76.4834 172.3338 69.4524 175.8488 76.4834"></polygon>
            <polygon id="Fill-59" points="158.8959 66.5615 162.4129 59.5305 165.9279 66.5615"></polygon>
            <polygon id="Fill-60" points="178.8138 46.7181 185.8458 46.7191 185.8458 46.7171 182.3298 39.6861"></polygon>
            <polygon id="Fill-61" points="178.8147 66.5613 185.8457 66.5613 185.8457 66.5593 182.3297 59.5303"></polygon>
            <polygon id="Fill-62" points="109.2133 16.9531 112.7293 9.9221 116.2443 16.9531"></polygon>
            <polygon id="Fill-63" points="102.807 8.52651283e-14 99.292 7.031 106.322 7.031"></polygon>
            <polygon id="Fill-64" points="109.2133 36.7969 112.7293 29.7649 116.2443 36.7969"></polygon>
            <polygon id="Fill-65" points="99.2914 26.875 102.8074 19.844 106.3224 26.875"></polygon>
            <polygon id="Fill-66" points="129.1312 16.9531 132.6472 9.9221 136.1622 16.9531"></polygon>
            <polygon id="Fill-67" points="142.569 8.52651283e-14 139.053 7.031 146.084 7.031"></polygon>
            <polygon id="Fill-68" points="129.1312 36.7969 132.6472 29.7649 136.1622 36.7969"></polygon>
            <polygon id="Fill-69" points="139.0531 26.875 142.5691 19.844 146.0841 26.875"></polygon>
            <polygon id="Fill-70" points="122.7249 8.52651283e-14 119.2099 7.031 126.2399 7.031"></polygon>
            <polygon id="Fill-71" points="119.2094 26.875 122.7254 19.844 126.2404 26.875"></polygon>
            <polygon id="Fill-72" points="109.2133 56.6396 112.7293 49.6086 116.2443 56.6396"></polygon>
            <polygon id="Fill-73" points="99.2914 46.7177 102.8074 39.6867 106.3224 46.7177"></polygon>
            <polygon id="Fill-74" points="109.2133 76.4834 112.7293 69.4524 116.2443 76.4834"></polygon>
            <polygon id="Fill-75" points="99.2914 66.5615 102.8074 59.5305 106.3224 66.5615"></polygon>
            <polygon id="Fill-76" points="129.1312 56.6396 132.6472 49.6086 136.1622 56.6396"></polygon>
            <polygon id="Fill-77" points="139.0531 46.7177 142.5691 39.6867 146.0841 46.7177"></polygon>
            <polygon id="Fill-78" points="129.1312 76.4834 132.6472 69.4514 136.1622 76.4834"></polygon>
            <polygon id="Fill-79" points="139.0531 66.5615 142.5691 59.5305 146.0841 66.5615"></polygon>
            <polygon id="Fill-80" points="119.2094 46.7177 122.7254 39.6867 126.2404 46.7177"></polygon>
            <polygon id="Fill-81" points="119.2094 66.5615 122.7254 59.5305 126.2404 66.5615"></polygon>
            <polygon id="Fill-82" points="158.8959 86.4052 162.4129 79.3732 165.9279 86.4052"></polygon>
            <polygon id="Fill-83" points="178.8138 86.4054 185.8458 86.4054 185.8458 86.4034 182.3298 79.3734"></polygon>
            <polygon id="Fill-84" points="99.2914 86.4052 102.8074 79.3732 106.3224 86.4052"></polygon>
            <polygon id="Fill-85" points="139.0531 86.4052 142.5691 79.3742 146.0841 86.4052"></polygon>
            <polygon id="Fill-86" points="119.2094 86.4052 122.7254 79.3742 126.2404 86.4052"></polygon>
            <polygon id="Fill-87" points="29.765 136.0127 33.281 128.9817 36.796 136.0137"></polygon>
            <polygon id="Fill-88" points="49.6088 136.0137 53.1248 128.9817 56.6398 136.0137"></polygon>
            <polygon id="Fill-89" points="39.6869 126.0918 43.2029 119.0608 46.7179 126.0918"></polygon>
            <polygon id="Fill-90" points="29.765 155.8564 33.281 148.8254 36.796 155.8564"></polygon>
            <polygon id="Fill-91" points="49.6088 155.8564 53.1248 148.8254 56.6398 155.8564"></polygon>
            <polygon id="Fill-92" points="39.6869 145.9346 43.2029 138.9036 46.7179 145.9346"></polygon>
            <polygon id="Fill-93" points="69.5268 136.0137 73.0428 128.9817 76.5578 136.0137"></polygon>
            <polygon id="Fill-94" points="89.3695 136.0137 92.8855 128.9817 96.4015 136.0137"></polygon>
            <polygon id="Fill-95" points="79.4486 126.0918 82.9646 119.0608 86.4796 126.0918"></polygon>
            <polygon id="Fill-96" points="69.5268 155.8564 73.0428 148.8254 76.5578 155.8564"></polygon>
            <polygon id="Fill-97" points="89.3695 155.8564 92.8855 148.8254 96.4015 155.8564"></polygon>
            <polygon id="Fill-98" points="79.4486 145.9346 82.9646 138.9036 86.4796 145.9346"></polygon>
            <polygon id="Fill-99" points="59.6049 126.0918 63.1209 119.0608 66.6359 126.0918"></polygon>
            <polygon id="Fill-100" points="59.6049 145.9346 63.1209 138.9036 66.6359 145.9346"></polygon>
            <polygon id="Fill-101" points="39.6873 165.7782 46.7183 165.7782 43.2023 158.7472"></polygon>
            <polygon id="Fill-102" points="79.4484 165.7782 86.4804 165.7782 82.9644 158.7472"></polygon>
            <polygon id="Fill-103" points="59.6052 165.7782 66.6362 165.7782 63.1202 158.7472"></polygon>
            <polygon id="Fill-104" points="9.9223 136.0127 13.4383 128.9817 16.9533 136.0127"></polygon>
            <polygon id="Fill-105" points="19.8432 126.0918 23.3592 119.0608 26.8752 126.0918"></polygon>
            <polygon id="Fill-106" points="9.9213 155.8564 13.4383 148.8254 16.9533 155.8564"></polygon>
            <polygon id="Fill-107" points="19.8432 145.9346 23.3592 138.9036 26.8752 145.9346"></polygon>
            <polygon id="Fill-108" points="7.63833441e-14 126.0918 7.032 126.0918 3.516 119.0598"></polygon>
            <polygon id="Fill-109" points="7.63833441e-14 145.935 7.032 145.935 3.516 138.903"></polygon>
            <polygon id="Fill-110" points="29.765 96.3261 33.281 89.2951 36.796 96.3261"></polygon>
            <polygon id="Fill-111" points="49.6088 96.3261 53.1248 89.2951 56.6398 96.3261"></polygon>
            <polygon id="Fill-112" points="29.765 116.1699 33.281 109.1389 36.796 116.1699"></polygon>
            <polygon id="Fill-113" points="49.6088 116.1699 53.1248 109.1389 56.6398 116.1699"></polygon>
            <polygon id="Fill-114" points="39.6869 106.248 43.2029 99.217 46.7179 106.248"></polygon>
            <polygon id="Fill-115" points="69.5268 96.3261 73.0428 89.2951 76.5578 96.3261"></polygon>
            <polygon id="Fill-116" points="89.3695 96.3261 92.8865 89.2951 96.4015 96.3261"></polygon>
            <polygon id="Fill-117" points="69.5268 116.1699 73.0428 109.1389 76.5578 116.1699"></polygon>
            <polygon id="Fill-118" points="89.3695 116.1699 92.8855 109.1389 96.4015 116.1699"></polygon>
            <polygon id="Fill-119" points="79.4486 106.248 82.9646 99.217 86.4796 106.248"></polygon>
            <polygon id="Fill-120" points="59.6049 106.248 63.1209 99.217 66.6359 106.248"></polygon>
            <polygon id="Fill-121" points="9.9223 96.3261 13.4383 89.2951 16.9533 96.3261"></polygon>
            <polygon id="Fill-122" points="9.9213 116.1699 13.4383 109.1389 16.9533 116.1699"></polygon>
            <polygon id="Fill-123" points="19.8432 106.248 23.3592 99.217 26.8752 106.248"></polygon>
            <polygon id="Fill-124" points="7.63833441e-14 106.2477 7.032 106.2477 3.516 99.2167"></polygon>
            <polygon id="Fill-125" points="19.8432 165.7782 26.8742 165.7782 23.3582 158.7472"></polygon>
            <polygon id="Fill-126" points="7.63833441e-14 165.7782 7.032 165.7782 3.516 158.7472"></polygon>
            <polygon id="Fill-127" points="148.975 136.0137 152.491 128.9817 156.006 136.0137"></polygon>
            <polygon id="Fill-128" points="168.8178 136.0137 172.3338 128.9817 175.8488 136.0137"></polygon>
            <polygon id="Fill-129" points="158.8959 126.0918 162.4119 119.0608 165.9279 126.0918"></polygon>
            <polygon id="Fill-130" points="148.975 155.8564 152.491 148.8254 156.006 155.8564"></polygon>
            <polygon id="Fill-131" points="168.8178 155.8564 172.3338 148.8254 175.8488 155.8564"></polygon>
            <polygon id="Fill-132" points="158.8959 145.9346 162.4119 138.9036 165.9279 145.9346"></polygon>
            <polygon id="Fill-133" points="178.8138 126.0918 185.8458 126.0918 185.8458 126.0898 182.3298 119.0598"></polygon>
            <polygon id="Fill-134" points="178.8138 145.935 185.8458 145.935 185.8458 145.933 182.3298 138.903"></polygon>
            <polygon id="Fill-135" points="158.8959 165.7782 165.9289 165.7782 162.4109 158.7472"></polygon>
            <polygon id="Fill-136" points="178.8147 165.7782 185.8457 165.7782 185.8457 165.7762 182.3297 158.7472"></polygon>
            <polygon id="Fill-137" points="109.2133 136.0137 112.7293 128.9817 116.2443 136.0137"></polygon>
            <polygon id="Fill-138" points="99.2914 126.0918 102.8074 119.0608 106.3224 126.0918"></polygon>
            <polygon id="Fill-139" points="109.2133 155.8564 112.7293 148.8254 116.2443 155.8564"></polygon>
            <polygon id="Fill-140" points="99.2914 145.9346 102.8074 138.9036 106.3224 145.9346"></polygon>
            <polygon id="Fill-141" points="129.1312 136.0137 132.6472 128.9817 136.1622 136.0137"></polygon>
            <polygon id="Fill-142" points="139.0531 126.0918 142.5691 119.0608 146.0841 126.0918"></polygon>
            <polygon id="Fill-143" points="129.1312 155.8564 132.6472 148.8254 136.1622 155.8564"></polygon>
            <polygon id="Fill-144" points="139.0531 145.9346 142.5691 138.9036 146.0841 145.9346"></polygon>
            <polygon id="Fill-145" points="119.2094 126.0918 122.7254 119.0608 126.2404 126.0918"></polygon>
            <polygon id="Fill-146" points="119.2094 145.9346 122.7254 138.9036 126.2404 145.9346"></polygon>
            <polygon id="Fill-147" points="148.975 96.3261 152.491 89.2951 156.006 96.3261"></polygon>
            <polygon id="Fill-148" points="168.8178 96.3261 172.3338 89.2951 175.8488 96.3261"></polygon>
            <polygon id="Fill-149" points="148.975 116.1699 152.491 109.1389 156.006 116.1699"></polygon>
            <polygon id="Fill-150" points="168.8178 116.1699 172.3338 109.1389 175.8488 116.1699"></polygon>
            <polygon id="Fill-151" points="158.8959 106.248 162.4119 99.217 165.9279 106.248"></polygon>
            <polygon id="Fill-152" points="178.8138 106.2477 185.8458 106.2477 185.8458 106.2457 182.3298 99.2167"></polygon>
            <polygon id="Fill-153" points="109.2133 96.3261 112.7293 89.2951 116.2443 96.3261"></polygon>
            <polygon id="Fill-154" points="109.2133 116.1699 112.7293 109.1389 116.2443 116.1699"></polygon>
            <polygon id="Fill-155" points="99.2914 106.248 102.8074 99.217 106.3224 106.248"></polygon>
            <polygon id="Fill-156" points="129.1312 96.3261 132.6472 89.2951 136.1622 96.3261"></polygon>
            <polygon id="Fill-157" points="129.1312 116.1699 132.6472 109.1389 136.1622 116.1699"></polygon>
            <polygon id="Fill-158" points="139.0531 106.248 142.5691 99.217 146.0841 106.248"></polygon>
            <polygon id="Fill-159" points="119.2094 106.248 122.7254 99.217 126.2404 106.248"></polygon>
            <polygon id="Fill-160" points="99.2916 165.7782 106.3226 165.7782 102.8066 158.7472"></polygon>
            <polygon id="Fill-161" points="139.0527 165.7782 146.0847 165.7782 142.5687 158.7472"></polygon>
            <polygon id="Fill-162" points="119.2095 165.7782 126.2405 165.7782 122.7245 158.7472"></polygon>
        </g>
        <g id="Group-Copy-4" transform="translate(182.000000, 162.000200)" fill="#000000">
            <polygon id="Fill-1" points="29.765 16.9531 33.281 9.9221 36.796 16.9531"></polygon>
            <polygon id="Fill-2" points="49.6088 16.9531 53.1248 9.9221 56.6398 16.9531"></polygon>
            <polygon id="Fill-3" points="43.2027 8.52651283e-14 39.6877 7.031 46.7177 7.031"></polygon>
            <polygon id="Fill-4" points="29.765 36.7969 33.281 29.7649 36.796 36.7969"></polygon>
            <polygon id="Fill-5" points="49.6088 36.7969 53.1248 29.7649 56.6398 36.7969"></polygon>
            <polygon id="Fill-6" points="39.6869 26.875 43.2029 19.844 46.7179 26.875"></polygon>
            <polygon id="Fill-7" points="69.5268 16.9531 73.0428 9.9221 76.5578 16.9531"></polygon>
            <polygon id="Fill-8" points="89.3695 16.9531 92.8865 9.9221 96.4015 16.9531"></polygon>
            <polygon id="Fill-9" points="82.9647 8.52651283e-14 79.4487 7.031 86.4797 7.031"></polygon>
            <polygon id="Fill-10" points="69.5268 36.7969 73.0428 29.7649 76.5578 36.7969"></polygon>
            <polygon id="Fill-11" points="89.3695 36.7969 92.8865 29.7649 96.4015 36.7969"></polygon>
            <polygon id="Fill-12" points="79.4486 26.875 82.9646 19.844 86.4796 26.875"></polygon>
            <polygon id="Fill-13" points="63.1206 8.52651283e-14 59.6056 7.031 66.6356 7.031"></polygon>
            <polygon id="Fill-14" points="59.6049 26.875 63.1209 19.844 66.6359 26.875"></polygon>
            <polygon id="Fill-15" points="29.765 56.6396 33.281 49.6086 36.796 56.6396"></polygon>
            <polygon id="Fill-16" points="49.6088 56.6396 53.1248 49.6086 56.6398 56.6396"></polygon>
            <polygon id="Fill-17" points="39.6869 46.7177 43.2029 39.6867 46.7179 46.7177"></polygon>
            <polygon id="Fill-18" points="29.765 76.4834 33.281 69.4524 36.796 76.4834"></polygon>
            <polygon id="Fill-19" points="49.6088 76.4834 53.1248 69.4524 56.6398 76.4834"></polygon>
            <polygon id="Fill-20" points="39.6869 66.5615 43.2029 59.5305 46.7179 66.5615"></polygon>
            <polygon id="Fill-21" points="69.5268 56.6396 73.0428 49.6086 76.5578 56.6396"></polygon>
            <polygon id="Fill-22" points="89.3695 56.6396 92.8865 49.6086 96.4015 56.6396"></polygon>
            <polygon id="Fill-23" points="79.4486 46.7177 82.9646 39.6867 86.4796 46.7177"></polygon>
            <polygon id="Fill-24" points="69.5268 76.4834 73.0428 69.4514 76.5578 76.4834"></polygon>
            <polygon id="Fill-25" points="89.3695 76.4834 92.8865 69.4524 96.4015 76.4834"></polygon>
            <polygon id="Fill-26" points="79.4486 66.5615 82.9646 59.5305 86.4796 66.5615"></polygon>
            <polygon id="Fill-27" points="59.6049 46.7177 63.1209 39.6867 66.6359 46.7177"></polygon>
            <polygon id="Fill-28" points="59.6049 66.5615 63.1209 59.5305 66.6359 66.5615"></polygon>
            <polygon id="Fill-29" points="9.9213 16.9531 13.4383 9.9221 16.9533 16.9531"></polygon>
            <polygon id="Fill-30" points="23.3586 8.52651283e-14 19.8436 7.031 26.8736 7.031"></polygon>
            <polygon id="Fill-31" points="9.9223 36.7969 13.4383 29.7649 16.9533 36.7969"></polygon>
            <polygon id="Fill-32" points="19.8432 26.875 23.3592 19.844 26.8752 26.875"></polygon>
            <polygon id="Fill-33" points="3.5163 8.52651283e-14 0.0003 7.031 7.0313 7.031"></polygon>
            <polygon id="Fill-34" points="7.63833441e-14 26.8749 7.032 26.8749 3.516 19.8439"></polygon>
            <polygon id="Fill-35" points="9.9213 56.6396 13.4383 49.6086 16.9533 56.6396"></polygon>
            <polygon id="Fill-36" points="19.8432 46.7177 23.3592 39.6867 26.8752 46.7177"></polygon>
            <polygon id="Fill-37" points="9.9213 76.4834 13.4383 69.4514 16.9533 76.4834"></polygon>
            <polygon id="Fill-38" points="19.8432 66.5615 23.3592 59.5305 26.8742 66.5615"></polygon>
            <polygon id="Fill-39" points="7.63833441e-14 46.7181 7.032 46.7181 3.516 39.6861"></polygon>
            <polygon id="Fill-40" points="7.63833441e-14 66.5613 7.032 66.5613 3.516 59.5303"></polygon>
            <polygon id="Fill-41" points="39.6869 86.4052 43.2029 79.3732 46.7179 86.4052"></polygon>
            <polygon id="Fill-42" points="79.4486 86.4052 82.9646 79.3742 86.4796 86.4052"></polygon>
            <polygon id="Fill-43" points="59.6049 86.4052 63.1209 79.3742 66.6359 86.4052"></polygon>
            <polygon id="Fill-44" points="19.8432 86.4052 23.3592 79.3742 26.8752 86.4052"></polygon>
            <polygon id="Fill-45" points="7.63833441e-14 86.4054 7.032 86.4054 3.516 79.3734"></polygon>
            <polygon id="Fill-46" points="148.975 16.9531 152.491 9.9221 156.006 16.9531"></polygon>
            <polygon id="Fill-47" points="168.8178 16.9531 172.3338 9.9221 175.8488 16.9531"></polygon>
            <polygon id="Fill-48" points="162.4122 8.52651283e-14 158.8962 7.031 165.9282 7.031"></polygon>
            <polygon id="Fill-49" points="148.975 36.7969 152.491 29.7649 156.006 36.7969"></polygon>
            <polygon id="Fill-50" points="168.8178 36.7969 172.3338 29.7659 175.8488 36.7969"></polygon>
            <polygon id="Fill-51" points="158.8959 26.875 162.4129 19.844 165.9279 26.875"></polygon>
            <polygon id="Fill-52" points="182.3301 8.52651283e-14 178.8151 7.031 185.8451 7.031 185.8451 7.029"></polygon>
            <polygon id="Fill-53" points="178.8138 26.8749 185.8458 26.8749 185.8458 26.8729 182.3298 19.8439"></polygon>
            <polygon id="Fill-54" points="148.975 56.6396 152.491 49.6086 156.006 56.6396"></polygon>
            <polygon id="Fill-55" points="168.8178 56.6396 172.3338 49.6086 175.8488 56.6396"></polygon>
            <polygon id="Fill-56" points="158.8959 46.7177 162.4129 39.6867 165.9279 46.7177"></polygon>
            <polygon id="Fill-57" points="148.975 76.4834 152.491 69.4524 156.006 76.4834"></polygon>
            <polygon id="Fill-58" points="168.8178 76.4834 172.3338 69.4524 175.8488 76.4834"></polygon>
            <polygon id="Fill-59" points="158.8959 66.5615 162.4129 59.5305 165.9279 66.5615"></polygon>
            <polygon id="Fill-60" points="178.8138 46.7181 185.8458 46.7191 185.8458 46.7171 182.3298 39.6861"></polygon>
            <polygon id="Fill-61" points="178.8147 66.5613 185.8457 66.5613 185.8457 66.5593 182.3297 59.5303"></polygon>
            <polygon id="Fill-62" points="109.2133 16.9531 112.7293 9.9221 116.2443 16.9531"></polygon>
            <polygon id="Fill-63" points="102.807 8.52651283e-14 99.292 7.031 106.322 7.031"></polygon>
            <polygon id="Fill-64" points="109.2133 36.7969 112.7293 29.7649 116.2443 36.7969"></polygon>
            <polygon id="Fill-65" points="99.2914 26.875 102.8074 19.844 106.3224 26.875"></polygon>
            <polygon id="Fill-66" points="129.1312 16.9531 132.6472 9.9221 136.1622 16.9531"></polygon>
            <polygon id="Fill-67" points="142.569 8.52651283e-14 139.053 7.031 146.084 7.031"></polygon>
            <polygon id="Fill-68" points="129.1312 36.7969 132.6472 29.7649 136.1622 36.7969"></polygon>
            <polygon id="Fill-69" points="139.0531 26.875 142.5691 19.844 146.0841 26.875"></polygon>
            <polygon id="Fill-70" points="122.7249 8.52651283e-14 119.2099 7.031 126.2399 7.031"></polygon>
            <polygon id="Fill-71" points="119.2094 26.875 122.7254 19.844 126.2404 26.875"></polygon>
            <polygon id="Fill-72" points="109.2133 56.6396 112.7293 49.6086 116.2443 56.6396"></polygon>
            <polygon id="Fill-73" points="99.2914 46.7177 102.8074 39.6867 106.3224 46.7177"></polygon>
            <polygon id="Fill-74" points="109.2133 76.4834 112.7293 69.4524 116.2443 76.4834"></polygon>
            <polygon id="Fill-75" points="99.2914 66.5615 102.8074 59.5305 106.3224 66.5615"></polygon>
            <polygon id="Fill-76" points="129.1312 56.6396 132.6472 49.6086 136.1622 56.6396"></polygon>
            <polygon id="Fill-77" points="139.0531 46.7177 142.5691 39.6867 146.0841 46.7177"></polygon>
            <polygon id="Fill-78" points="129.1312 76.4834 132.6472 69.4514 136.1622 76.4834"></polygon>
            <polygon id="Fill-79" points="139.0531 66.5615 142.5691 59.5305 146.0841 66.5615"></polygon>
            <polygon id="Fill-80" points="119.2094 46.7177 122.7254 39.6867 126.2404 46.7177"></polygon>
            <polygon id="Fill-81" points="119.2094 66.5615 122.7254 59.5305 126.2404 66.5615"></polygon>
            <polygon id="Fill-82" points="158.8959 86.4052 162.4129 79.3732 165.9279 86.4052"></polygon>
            <polygon id="Fill-83" points="178.8138 86.4054 185.8458 86.4054 185.8458 86.4034 182.3298 79.3734"></polygon>
            <polygon id="Fill-84" points="99.2914 86.4052 102.8074 79.3732 106.3224 86.4052"></polygon>
            <polygon id="Fill-85" points="139.0531 86.4052 142.5691 79.3742 146.0841 86.4052"></polygon>
            <polygon id="Fill-86" points="119.2094 86.4052 122.7254 79.3742 126.2404 86.4052"></polygon>
            <polygon id="Fill-87" points="29.765 136.0127 33.281 128.9817 36.796 136.0137"></polygon>
            <polygon id="Fill-88" points="49.6088 136.0137 53.1248 128.9817 56.6398 136.0137"></polygon>
            <polygon id="Fill-89" points="39.6869 126.0918 43.2029 119.0608 46.7179 126.0918"></polygon>
            <polygon id="Fill-90" points="29.765 155.8564 33.281 148.8254 36.796 155.8564"></polygon>
            <polygon id="Fill-91" points="49.6088 155.8564 53.1248 148.8254 56.6398 155.8564"></polygon>
            <polygon id="Fill-92" points="39.6869 145.9346 43.2029 138.9036 46.7179 145.9346"></polygon>
            <polygon id="Fill-93" points="69.5268 136.0137 73.0428 128.9817 76.5578 136.0137"></polygon>
            <polygon id="Fill-94" points="89.3695 136.0137 92.8855 128.9817 96.4015 136.0137"></polygon>
            <polygon id="Fill-95" points="79.4486 126.0918 82.9646 119.0608 86.4796 126.0918"></polygon>
            <polygon id="Fill-96" points="69.5268 155.8564 73.0428 148.8254 76.5578 155.8564"></polygon>
            <polygon id="Fill-97" points="89.3695 155.8564 92.8855 148.8254 96.4015 155.8564"></polygon>
            <polygon id="Fill-98" points="79.4486 145.9346 82.9646 138.9036 86.4796 145.9346"></polygon>
            <polygon id="Fill-99" points="59.6049 126.0918 63.1209 119.0608 66.6359 126.0918"></polygon>
            <polygon id="Fill-100" points="59.6049 145.9346 63.1209 138.9036 66.6359 145.9346"></polygon>
            <polygon id="Fill-101" points="39.6873 165.7782 46.7183 165.7782 43.2023 158.7472"></polygon>
            <polygon id="Fill-102" points="79.4484 165.7782 86.4804 165.7782 82.9644 158.7472"></polygon>
            <polygon id="Fill-103" points="59.6052 165.7782 66.6362 165.7782 63.1202 158.7472"></polygon>
            <polygon id="Fill-104" points="9.9223 136.0127 13.4383 128.9817 16.9533 136.0127"></polygon>
            <polygon id="Fill-105" points="19.8432 126.0918 23.3592 119.0608 26.8752 126.0918"></polygon>
            <polygon id="Fill-106" points="9.9213 155.8564 13.4383 148.8254 16.9533 155.8564"></polygon>
            <polygon id="Fill-107" points="19.8432 145.9346 23.3592 138.9036 26.8752 145.9346"></polygon>
            <polygon id="Fill-108" points="7.63833441e-14 126.0918 7.032 126.0918 3.516 119.0598"></polygon>
            <polygon id="Fill-109" points="7.63833441e-14 145.935 7.032 145.935 3.516 138.903"></polygon>
            <polygon id="Fill-110" points="29.765 96.3261 33.281 89.2951 36.796 96.3261"></polygon>
            <polygon id="Fill-111" points="49.6088 96.3261 53.1248 89.2951 56.6398 96.3261"></polygon>
            <polygon id="Fill-112" points="29.765 116.1699 33.281 109.1389 36.796 116.1699"></polygon>
            <polygon id="Fill-113" points="49.6088 116.1699 53.1248 109.1389 56.6398 116.1699"></polygon>
            <polygon id="Fill-114" points="39.6869 106.248 43.2029 99.217 46.7179 106.248"></polygon>
            <polygon id="Fill-115" points="69.5268 96.3261 73.0428 89.2951 76.5578 96.3261"></polygon>
            <polygon id="Fill-116" points="89.3695 96.3261 92.8865 89.2951 96.4015 96.3261"></polygon>
            <polygon id="Fill-117" points="69.5268 116.1699 73.0428 109.1389 76.5578 116.1699"></polygon>
            <polygon id="Fill-118" points="89.3695 116.1699 92.8855 109.1389 96.4015 116.1699"></polygon>
            <polygon id="Fill-119" points="79.4486 106.248 82.9646 99.217 86.4796 106.248"></polygon>
            <polygon id="Fill-120" points="59.6049 106.248 63.1209 99.217 66.6359 106.248"></polygon>
            <polygon id="Fill-121" points="9.9223 96.3261 13.4383 89.2951 16.9533 96.3261"></polygon>
            <polygon id="Fill-122" points="9.9213 116.1699 13.4383 109.1389 16.9533 116.1699"></polygon>
            <polygon id="Fill-123" points="19.8432 106.248 23.3592 99.217 26.8752 106.248"></polygon>
            <polygon id="Fill-124" points="7.63833441e-14 106.2477 7.032 106.2477 3.516 99.2167"></polygon>
            <polygon id="Fill-125" points="19.8432 165.7782 26.8742 165.7782 23.3582 158.7472"></polygon>
            <polygon id="Fill-126" points="7.63833441e-14 165.7782 7.032 165.7782 3.516 158.7472"></polygon>
            <polygon id="Fill-127" points="148.975 136.0137 152.491 128.9817 156.006 136.0137"></polygon>
            <polygon id="Fill-128" points="168.8178 136.0137 172.3338 128.9817 175.8488 136.0137"></polygon>
            <polygon id="Fill-129" points="158.8959 126.0918 162.4119 119.0608 165.9279 126.0918"></polygon>
            <polygon id="Fill-130" points="148.975 155.8564 152.491 148.8254 156.006 155.8564"></polygon>
            <polygon id="Fill-131" points="168.8178 155.8564 172.3338 148.8254 175.8488 155.8564"></polygon>
            <polygon id="Fill-132" points="158.8959 145.9346 162.4119 138.9036 165.9279 145.9346"></polygon>
            <polygon id="Fill-133" points="178.8138 126.0918 185.8458 126.0918 185.8458 126.0898 182.3298 119.0598"></polygon>
            <polygon id="Fill-134" points="178.8138 145.935 185.8458 145.935 185.8458 145.933 182.3298 138.903"></polygon>
            <polygon id="Fill-135" points="158.8959 165.7782 165.9289 165.7782 162.4109 158.7472"></polygon>
            <polygon id="Fill-136" points="178.8147 165.7782 185.8457 165.7782 185.8457 165.7762 182.3297 158.7472"></polygon>
            <polygon id="Fill-137" points="109.2133 136.0137 112.7293 128.9817 116.2443 136.0137"></polygon>
            <polygon id="Fill-138" points="99.2914 126.0918 102.8074 119.0608 106.3224 126.0918"></polygon>
            <polygon id="Fill-139" points="109.2133 155.8564 112.7293 148.8254 116.2443 155.8564"></polygon>
            <polygon id="Fill-140" points="99.2914 145.9346 102.8074 138.9036 106.3224 145.9346"></polygon>
            <polygon id="Fill-141" points="129.1312 136.0137 132.6472 128.9817 136.1622 136.0137"></polygon>
            <polygon id="Fill-142" points="139.0531 126.0918 142.5691 119.0608 146.0841 126.0918"></polygon>
            <polygon id="Fill-143" points="129.1312 155.8564 132.6472 148.8254 136.1622 155.8564"></polygon>
            <polygon id="Fill-144" points="139.0531 145.9346 142.5691 138.9036 146.0841 145.9346"></polygon>
            <polygon id="Fill-145" points="119.2094 126.0918 122.7254 119.0608 126.2404 126.0918"></polygon>
            <polygon id="Fill-146" points="119.2094 145.9346 122.7254 138.9036 126.2404 145.9346"></polygon>
            <polygon id="Fill-147" points="148.975 96.3261 152.491 89.2951 156.006 96.3261"></polygon>
            <polygon id="Fill-148" points="168.8178 96.3261 172.3338 89.2951 175.8488 96.3261"></polygon>
            <polygon id="Fill-149" points="148.975 116.1699 152.491 109.1389 156.006 116.1699"></polygon>
            <polygon id="Fill-150" points="168.8178 116.1699 172.3338 109.1389 175.8488 116.1699"></polygon>
            <polygon id="Fill-151" points="158.8959 106.248 162.4119 99.217 165.9279 106.248"></polygon>
            <polygon id="Fill-152" points="178.8138 106.2477 185.8458 106.2477 185.8458 106.2457 182.3298 99.2167"></polygon>
            <polygon id="Fill-153" points="109.2133 96.3261 112.7293 89.2951 116.2443 96.3261"></polygon>
            <polygon id="Fill-154" points="109.2133 116.1699 112.7293 109.1389 116.2443 116.1699"></polygon>
            <polygon id="Fill-155" points="99.2914 106.248 102.8074 99.217 106.3224 106.248"></polygon>
            <polygon id="Fill-156" points="129.1312 96.3261 132.6472 89.2951 136.1622 96.3261"></polygon>
            <polygon id="Fill-157" points="129.1312 116.1699 132.6472 109.1389 136.1622 116.1699"></polygon>
            <polygon id="Fill-158" points="139.0531 106.248 142.5691 99.217 146.0841 106.248"></polygon>
            <polygon id="Fill-159" points="119.2094 106.248 122.7254 99.217 126.2404 106.248"></polygon>
            <polygon id="Fill-160" points="99.2916 165.7782 106.3226 165.7782 102.8066 158.7472"></polygon>
            <polygon id="Fill-161" points="139.0527 165.7782 146.0847 165.7782 142.5687 158.7472"></polygon>
            <polygon id="Fill-162" points="119.2095 165.7782 126.2405 165.7782 122.7245 158.7472"></polygon>
        </g>
        <g id="Group-Copy-2" transform="translate(3.000000, 321.000000)" fill="#000000">
            <polygon id="Fill-1" points="29.765 16.9531 33.281 9.9221 36.796 16.9531"></polygon>
            <polygon id="Fill-2" points="49.6088 16.9531 53.1248 9.9221 56.6398 16.9531"></polygon>
            <polygon id="Fill-3" points="43.2027 8.52651283e-14 39.6877 7.031 46.7177 7.031"></polygon>
            <polygon id="Fill-4" points="29.765 36.7969 33.281 29.7649 36.796 36.7969"></polygon>
            <polygon id="Fill-5" points="49.6088 36.7969 53.1248 29.7649 56.6398 36.7969"></polygon>
            <polygon id="Fill-6" points="39.6869 26.875 43.2029 19.844 46.7179 26.875"></polygon>
            <polygon id="Fill-7" points="69.5268 16.9531 73.0428 9.9221 76.5578 16.9531"></polygon>
            <polygon id="Fill-8" points="89.3695 16.9531 92.8865 9.9221 96.4015 16.9531"></polygon>
            <polygon id="Fill-9" points="82.9647 8.52651283e-14 79.4487 7.031 86.4797 7.031"></polygon>
            <polygon id="Fill-10" points="69.5268 36.7969 73.0428 29.7649 76.5578 36.7969"></polygon>
            <polygon id="Fill-11" points="89.3695 36.7969 92.8865 29.7649 96.4015 36.7969"></polygon>
            <polygon id="Fill-12" points="79.4486 26.875 82.9646 19.844 86.4796 26.875"></polygon>
            <polygon id="Fill-13" points="63.1206 8.52651283e-14 59.6056 7.031 66.6356 7.031"></polygon>
            <polygon id="Fill-14" points="59.6049 26.875 63.1209 19.844 66.6359 26.875"></polygon>
            <polygon id="Fill-15" points="29.765 56.6396 33.281 49.6086 36.796 56.6396"></polygon>
            <polygon id="Fill-16" points="49.6088 56.6396 53.1248 49.6086 56.6398 56.6396"></polygon>
            <polygon id="Fill-17" points="39.6869 46.7177 43.2029 39.6867 46.7179 46.7177"></polygon>
            <polygon id="Fill-18" points="29.765 76.4834 33.281 69.4524 36.796 76.4834"></polygon>
            <polygon id="Fill-19" points="49.6088 76.4834 53.1248 69.4524 56.6398 76.4834"></polygon>
            <polygon id="Fill-20" points="39.6869 66.5615 43.2029 59.5305 46.7179 66.5615"></polygon>
            <polygon id="Fill-21" points="69.5268 56.6396 73.0428 49.6086 76.5578 56.6396"></polygon>
            <polygon id="Fill-22" points="89.3695 56.6396 92.8865 49.6086 96.4015 56.6396"></polygon>
            <polygon id="Fill-23" points="79.4486 46.7177 82.9646 39.6867 86.4796 46.7177"></polygon>
            <polygon id="Fill-24" points="69.5268 76.4834 73.0428 69.4514 76.5578 76.4834"></polygon>
            <polygon id="Fill-25" points="89.3695 76.4834 92.8865 69.4524 96.4015 76.4834"></polygon>
            <polygon id="Fill-26" points="79.4486 66.5615 82.9646 59.5305 86.4796 66.5615"></polygon>
            <polygon id="Fill-27" points="59.6049 46.7177 63.1209 39.6867 66.6359 46.7177"></polygon>
            <polygon id="Fill-28" points="59.6049 66.5615 63.1209 59.5305 66.6359 66.5615"></polygon>
            <polygon id="Fill-29" points="9.9213 16.9531 13.4383 9.9221 16.9533 16.9531"></polygon>
            <polygon id="Fill-30" points="23.3586 8.52651283e-14 19.8436 7.031 26.8736 7.031"></polygon>
            <polygon id="Fill-31" points="9.9223 36.7969 13.4383 29.7649 16.9533 36.7969"></polygon>
            <polygon id="Fill-32" points="19.8432 26.875 23.3592 19.844 26.8752 26.875"></polygon>
            <polygon id="Fill-33" points="3.5163 8.52651283e-14 0.0003 7.031 7.0313 7.031"></polygon>
            <polygon id="Fill-34" points="7.63833441e-14 26.8749 7.032 26.8749 3.516 19.8439"></polygon>
            <polygon id="Fill-35" points="9.9213 56.6396 13.4383 49.6086 16.9533 56.6396"></polygon>
            <polygon id="Fill-36" points="19.8432 46.7177 23.3592 39.6867 26.8752 46.7177"></polygon>
            <polygon id="Fill-37" points="9.9213 76.4834 13.4383 69.4514 16.9533 76.4834"></polygon>
            <polygon id="Fill-38" points="19.8432 66.5615 23.3592 59.5305 26.8742 66.5615"></polygon>
            <polygon id="Fill-39" points="7.63833441e-14 46.7181 7.032 46.7181 3.516 39.6861"></polygon>
            <polygon id="Fill-40" points="7.63833441e-14 66.5613 7.032 66.5613 3.516 59.5303"></polygon>
            <polygon id="Fill-46" points="148.975 16.9531 152.491 9.9221 156.006 16.9531"></polygon>
            <polygon id="Fill-47" points="168.8178 16.9531 172.3338 9.9221 175.8488 16.9531"></polygon>
            <polygon id="Fill-48" points="162.4122 8.52651283e-14 158.8962 7.031 165.9282 7.031"></polygon>
            <polygon id="Fill-49" points="148.975 36.7969 152.491 29.7649 156.006 36.7969"></polygon>
            <polygon id="Fill-50" points="168.8178 36.7969 172.3338 29.7659 175.8488 36.7969"></polygon>
            <polygon id="Fill-51" points="158.8959 26.875 162.4129 19.844 165.9279 26.875"></polygon>
            <polygon id="Fill-52" points="182.3301 8.52651283e-14 178.8151 7.031 185.8451 7.031 185.8451 7.029"></polygon>
            <polygon id="Fill-53" points="178.8138 26.8749 185.8458 26.8749 185.8458 26.8729 182.3298 19.8439"></polygon>
            <polygon id="Fill-54" points="148.975 56.6396 152.491 49.6086 156.006 56.6396"></polygon>
            <polygon id="Fill-55" points="168.8178 56.6396 172.3338 49.6086 175.8488 56.6396"></polygon>
            <polygon id="Fill-56" points="158.8959 46.7177 162.4129 39.6867 165.9279 46.7177"></polygon>
            <polygon id="Fill-57" points="148.975 76.4834 152.491 69.4524 156.006 76.4834"></polygon>
            <polygon id="Fill-58" points="168.8178 76.4834 172.3338 69.4524 175.8488 76.4834"></polygon>
            <polygon id="Fill-59" points="158.8959 66.5615 162.4129 59.5305 165.9279 66.5615"></polygon>
            <polygon id="Fill-60" points="178.8138 46.7181 185.8458 46.7191 185.8458 46.7171 182.3298 39.6861"></polygon>
            <polygon id="Fill-61" points="178.8147 66.5613 185.8457 66.5613 185.8457 66.5593 182.3297 59.5303"></polygon>
            <polygon id="Fill-62" points="109.2133 16.9531 112.7293 9.9221 116.2443 16.9531"></polygon>
            <polygon id="Fill-63" points="102.807 8.52651283e-14 99.292 7.031 106.322 7.031"></polygon>
            <polygon id="Fill-64" points="109.2133 36.7969 112.7293 29.7649 116.2443 36.7969"></polygon>
            <polygon id="Fill-65" points="99.2914 26.875 102.8074 19.844 106.3224 26.875"></polygon>
            <polygon id="Fill-66" points="129.1312 16.9531 132.6472 9.9221 136.1622 16.9531"></polygon>
            <polygon id="Fill-67" points="142.569 8.52651283e-14 139.053 7.031 146.084 7.031"></polygon>
            <polygon id="Fill-68" points="129.1312 36.7969 132.6472 29.7649 136.1622 36.7969"></polygon>
            <polygon id="Fill-69" points="139.0531 26.875 142.5691 19.844 146.0841 26.875"></polygon>
            <polygon id="Fill-70" points="122.7249 8.52651283e-14 119.2099 7.031 126.2399 7.031"></polygon>
            <polygon id="Fill-71" points="119.2094 26.875 122.7254 19.844 126.2404 26.875"></polygon>
            <polygon id="Fill-72" points="109.2133 56.6396 112.7293 49.6086 116.2443 56.6396"></polygon>
            <polygon id="Fill-73" points="99.2914 46.7177 102.8074 39.6867 106.3224 46.7177"></polygon>
            <polygon id="Fill-74" points="109.2133 76.4834 112.7293 69.4524 116.2443 76.4834"></polygon>
            <polygon id="Fill-75" points="99.2914 66.5615 102.8074 59.5305 106.3224 66.5615"></polygon>
            <polygon id="Fill-76" points="129.1312 56.6396 132.6472 49.6086 136.1622 56.6396"></polygon>
            <polygon id="Fill-77" points="139.0531 46.7177 142.5691 39.6867 146.0841 46.7177"></polygon>
            <polygon id="Fill-78" points="129.1312 76.4834 132.6472 69.4514 136.1622 76.4834"></polygon>
            <polygon id="Fill-79" points="139.0531 66.5615 142.5691 59.5305 146.0841 66.5615"></polygon>
            <polygon id="Fill-80" points="119.2094 46.7177 122.7254 39.6867 126.2404 46.7177"></polygon>
            <polygon id="Fill-81" points="119.2094 66.5615 122.7254 59.5305 126.2404 66.5615"></polygon>
        </g>
        <g id="Group-Copy-5" transform="translate(182.000000, 321.000200)" fill="#000000">
            <polygon id="Fill-1" points="29.765 16.9531 33.281 9.9221 36.796 16.9531"></polygon>
            <polygon id="Fill-2" points="49.6088 16.9531 53.1248 9.9221 56.6398 16.9531"></polygon>
            <polygon id="Fill-3" points="43.2027 8.52651283e-14 39.6877 7.031 46.7177 7.031"></polygon>
            <polygon id="Fill-4" points="29.765 36.7969 33.281 29.7649 36.796 36.7969"></polygon>
            <polygon id="Fill-5" points="49.6088 36.7969 53.1248 29.7649 56.6398 36.7969"></polygon>
            <polygon id="Fill-6" points="39.6869 26.875 43.2029 19.844 46.7179 26.875"></polygon>
            <polygon id="Fill-7" points="69.5268 16.9531 73.0428 9.9221 76.5578 16.9531"></polygon>
            <polygon id="Fill-8" points="89.3695 16.9531 92.8865 9.9221 96.4015 16.9531"></polygon>
            <polygon id="Fill-9" points="82.9647 8.52651283e-14 79.4487 7.031 86.4797 7.031"></polygon>
            <polygon id="Fill-10" points="69.5268 36.7969 73.0428 29.7649 76.5578 36.7969"></polygon>
            <polygon id="Fill-11" points="89.3695 36.7969 92.8865 29.7649 96.4015 36.7969"></polygon>
            <polygon id="Fill-12" points="79.4486 26.875 82.9646 19.844 86.4796 26.875"></polygon>
            <polygon id="Fill-13" points="63.1206 8.52651283e-14 59.6056 7.031 66.6356 7.031"></polygon>
            <polygon id="Fill-14" points="59.6049 26.875 63.1209 19.844 66.6359 26.875"></polygon>
            <polygon id="Fill-15" points="29.765 56.6396 33.281 49.6086 36.796 56.6396"></polygon>
            <polygon id="Fill-16" points="49.6088 56.6396 53.1248 49.6086 56.6398 56.6396"></polygon>
            <polygon id="Fill-17" points="39.6869 46.7177 43.2029 39.6867 46.7179 46.7177"></polygon>
            <polygon id="Fill-18" points="29.765 76.4834 33.281 69.4524 36.796 76.4834"></polygon>
            <polygon id="Fill-19" points="49.6088 76.4834 53.1248 69.4524 56.6398 76.4834"></polygon>
            <polygon id="Fill-20" points="39.6869 66.5615 43.2029 59.5305 46.7179 66.5615"></polygon>
            <polygon id="Fill-21" points="69.5268 56.6396 73.0428 49.6086 76.5578 56.6396"></polygon>
            <polygon id="Fill-22" points="89.3695 56.6396 92.8865 49.6086 96.4015 56.6396"></polygon>
            <polygon id="Fill-23" points="79.4486 46.7177 82.9646 39.6867 86.4796 46.7177"></polygon>
            <polygon id="Fill-24" points="69.5268 76.4834 73.0428 69.4514 76.5578 76.4834"></polygon>
            <polygon id="Fill-25" points="89.3695 76.4834 92.8865 69.4524 96.4015 76.4834"></polygon>
            <polygon id="Fill-26" points="79.4486 66.5615 82.9646 59.5305 86.4796 66.5615"></polygon>
            <polygon id="Fill-27" points="59.6049 46.7177 63.1209 39.6867 66.6359 46.7177"></polygon>
            <polygon id="Fill-28" points="59.6049 66.5615 63.1209 59.5305 66.6359 66.5615"></polygon>
            <polygon id="Fill-29" points="9.9213 16.9531 13.4383 9.9221 16.9533 16.9531"></polygon>
            <polygon id="Fill-30" points="23.3586 8.52651283e-14 19.8436 7.031 26.8736 7.031"></polygon>
            <polygon id="Fill-31" points="9.9223 36.7969 13.4383 29.7649 16.9533 36.7969"></polygon>
            <polygon id="Fill-32" points="19.8432 26.875 23.3592 19.844 26.8752 26.875"></polygon>
            <polygon id="Fill-33" points="3.5163 8.52651283e-14 0.0003 7.031 7.0313 7.031"></polygon>
            <polygon id="Fill-34" points="7.63833441e-14 26.8749 7.032 26.8749 3.516 19.8439"></polygon>
            <polygon id="Fill-35" points="9.9213 56.6396 13.4383 49.6086 16.9533 56.6396"></polygon>
            <polygon id="Fill-36" points="19.8432 46.7177 23.3592 39.6867 26.8752 46.7177"></polygon>
            <polygon id="Fill-37" points="9.9213 76.4834 13.4383 69.4514 16.9533 76.4834"></polygon>
            <polygon id="Fill-38" points="19.8432 66.5615 23.3592 59.5305 26.8742 66.5615"></polygon>
            <polygon id="Fill-39" points="7.63833441e-14 46.7181 7.032 46.7181 3.516 39.6861"></polygon>
            <polygon id="Fill-40" points="7.63833441e-14 66.5613 7.032 66.5613 3.516 59.5303"></polygon>
            <polygon id="Fill-46" points="148.975 16.9531 152.491 9.9221 156.006 16.9531"></polygon>
            <polygon id="Fill-47" points="168.8178 16.9531 172.3338 9.9221 175.8488 16.9531"></polygon>
            <polygon id="Fill-48" points="162.4122 8.52651283e-14 158.8962 7.031 165.9282 7.031"></polygon>
            <polygon id="Fill-49" points="148.975 36.7969 152.491 29.7649 156.006 36.7969"></polygon>
            <polygon id="Fill-50" points="168.8178 36.7969 172.3338 29.7659 175.8488 36.7969"></polygon>
            <polygon id="Fill-51" points="158.8959 26.875 162.4129 19.844 165.9279 26.875"></polygon>
            <polygon id="Fill-52" points="182.3301 8.52651283e-14 178.8151 7.031 185.8451 7.031 185.8451 7.029"></polygon>
            <polygon id="Fill-53" points="178.8138 26.8749 185.8458 26.8749 185.8458 26.8729 182.3298 19.8439"></polygon>
            <polygon id="Fill-54" points="148.975 56.6396 152.491 49.6086 156.006 56.6396"></polygon>
            <polygon id="Fill-55" points="168.8178 56.6396 172.3338 49.6086 175.8488 56.6396"></polygon>
            <polygon id="Fill-56" points="158.8959 46.7177 162.4129 39.6867 165.9279 46.7177"></polygon>
            <polygon id="Fill-57" points="148.975 76.4834 152.491 69.4524 156.006 76.4834"></polygon>
            <polygon id="Fill-58" points="168.8178 76.4834 172.3338 69.4524 175.8488 76.4834"></polygon>
            <polygon id="Fill-59" points="158.8959 66.5615 162.4129 59.5305 165.9279 66.5615"></polygon>
            <polygon id="Fill-60" points="178.8138 46.7181 185.8458 46.7191 185.8458 46.7171 182.3298 39.6861"></polygon>
            <polygon id="Fill-61" points="178.8147 66.5613 185.8457 66.5613 185.8457 66.5593 182.3297 59.5303"></polygon>
            <polygon id="Fill-62" points="109.2133 16.9531 112.7293 9.9221 116.2443 16.9531"></polygon>
            <polygon id="Fill-63" points="102.807 8.52651283e-14 99.292 7.031 106.322 7.031"></polygon>
            <polygon id="Fill-64" points="109.2133 36.7969 112.7293 29.7649 116.2443 36.7969"></polygon>
            <polygon id="Fill-65" points="99.2914 26.875 102.8074 19.844 106.3224 26.875"></polygon>
            <polygon id="Fill-66" points="129.1312 16.9531 132.6472 9.9221 136.1622 16.9531"></polygon>
            <polygon id="Fill-67" points="142.569 8.52651283e-14 139.053 7.031 146.084 7.031"></polygon>
            <polygon id="Fill-68" points="129.1312 36.7969 132.6472 29.7649 136.1622 36.7969"></polygon>
            <polygon id="Fill-69" points="139.0531 26.875 142.5691 19.844 146.0841 26.875"></polygon>
            <polygon id="Fill-70" points="122.7249 8.52651283e-14 119.2099 7.031 126.2399 7.031"></polygon>
            <polygon id="Fill-71" points="119.2094 26.875 122.7254 19.844 126.2404 26.875"></polygon>
            <polygon id="Fill-72" points="109.2133 56.6396 112.7293 49.6086 116.2443 56.6396"></polygon>
            <polygon id="Fill-73" points="99.2914 46.7177 102.8074 39.6867 106.3224 46.7177"></polygon>
            <polygon id="Fill-74" points="109.2133 76.4834 112.7293 69.4524 116.2443 76.4834"></polygon>
            <polygon id="Fill-75" points="99.2914 66.5615 102.8074 59.5305 106.3224 66.5615"></polygon>
            <polygon id="Fill-76" points="129.1312 56.6396 132.6472 49.6086 136.1622 56.6396"></polygon>
            <polygon id="Fill-77" points="139.0531 46.7177 142.5691 39.6867 146.0841 46.7177"></polygon>
            <polygon id="Fill-78" points="129.1312 76.4834 132.6472 69.4514 136.1622 76.4834"></polygon>
            <polygon id="Fill-79" points="139.0531 66.5615 142.5691 59.5305 146.0841 66.5615"></polygon>
            <polygon id="Fill-80" points="119.2094 46.7177 122.7254 39.6867 126.2404 46.7177"></polygon>
            <polygon id="Fill-81" points="119.2094 66.5615 122.7254 59.5305 126.2404 66.5615"></polygon>
        </g>
        <g id="Group-Copy-6" transform="translate(361.000000, 3.000000)" fill="#000000">
            <polygon id="Fill-1" points="29.765 16.9531 33.281 9.9221 36.796 16.9531"></polygon>
            <polygon id="Fill-4" points="29.765 36.7969 33.281 29.7649 36.796 36.7969"></polygon>
            <polygon id="Fill-15" points="29.765 56.6396 33.281 49.6086 36.796 56.6396"></polygon>
            <polygon id="Fill-18" points="29.765 76.4834 33.281 69.4524 36.796 76.4834"></polygon>
            <polygon id="Fill-29" points="9.9213 16.9531 13.4383 9.9221 16.9533 16.9531"></polygon>
            <polygon id="Fill-30" points="23.3586 8.52651283e-14 19.8436 7.031 26.8736 7.031"></polygon>
            <polygon id="Fill-31" points="9.9223 36.7969 13.4383 29.7649 16.9533 36.7969"></polygon>
            <polygon id="Fill-32" points="19.8432 26.875 23.3592 19.844 26.8752 26.875"></polygon>
            <polygon id="Fill-33" points="3.5163 8.52651283e-14 0.0003 7.031 7.0313 7.031"></polygon>
            <polygon id="Fill-34" points="7.63833441e-14 26.8749 7.032 26.8749 3.516 19.8439"></polygon>
            <polygon id="Fill-35" points="9.9213 56.6396 13.4383 49.6086 16.9533 56.6396"></polygon>
            <polygon id="Fill-36" points="19.8432 46.7177 23.3592 39.6867 26.8752 46.7177"></polygon>
            <polygon id="Fill-37" points="9.9213 76.4834 13.4383 69.4514 16.9533 76.4834"></polygon>
            <polygon id="Fill-38" points="19.8432 66.5615 23.3592 59.5305 26.8742 66.5615"></polygon>
            <polygon id="Fill-39" points="7.63833441e-14 46.7181 7.032 46.7181 3.516 39.6861"></polygon>
            <polygon id="Fill-40" points="7.63833441e-14 66.5613 7.032 66.5613 3.516 59.5303"></polygon>
            <polygon id="Fill-44" points="19.8432 86.4052 23.3592 79.3742 26.8752 86.4052"></polygon>
            <polygon id="Fill-45" points="7.63833441e-14 86.4054 7.032 86.4054 3.516 79.3734"></polygon>
            <polygon id="Fill-87" points="29.765 136.0127 33.281 128.9817 36.796 136.0137"></polygon>
            <polygon id="Fill-90" points="29.765 155.8564 33.281 148.8254 36.796 155.8564"></polygon>
            <polygon id="Fill-104" points="9.9223 136.0127 13.4383 128.9817 16.9533 136.0127"></polygon>
            <polygon id="Fill-105" points="19.8432 126.0918 23.3592 119.0608 26.8752 126.0918"></polygon>
            <polygon id="Fill-106" points="9.9213 155.8564 13.4383 148.8254 16.9533 155.8564"></polygon>
            <polygon id="Fill-107" points="19.8432 145.9346 23.3592 138.9036 26.8752 145.9346"></polygon>
            <polygon id="Fill-108" points="7.63833441e-14 126.0918 7.032 126.0918 3.516 119.0598"></polygon>
            <polygon id="Fill-109" points="7.63833441e-14 145.935 7.032 145.935 3.516 138.903"></polygon>
            <polygon id="Fill-110" points="29.765 96.3261 33.281 89.2951 36.796 96.3261"></polygon>
            <polygon id="Fill-112" points="29.765 116.1699 33.281 109.1389 36.796 116.1699"></polygon>
            <polygon id="Fill-121" points="9.9223 96.3261 13.4383 89.2951 16.9533 96.3261"></polygon>
            <polygon id="Fill-122" points="9.9213 116.1699 13.4383 109.1389 16.9533 116.1699"></polygon>
            <polygon id="Fill-123" points="19.8432 106.248 23.3592 99.217 26.8752 106.248"></polygon>
            <polygon id="Fill-124" points="7.63833441e-14 106.2477 7.032 106.2477 3.516 99.2167"></polygon>
            <polygon id="Fill-125" points="19.8432 165.7782 26.8742 165.7782 23.3582 158.7472"></polygon>
            <polygon id="Fill-126" points="7.63833441e-14 165.7782 7.032 165.7782 3.516 158.7472"></polygon>
        </g>
        <g id="Group-Copy-7" transform="translate(361.000000, 162.000200)" fill="#000000">
            <polygon id="Fill-1" points="29.765 16.9531 33.281 9.9221 36.796 16.9531"></polygon>
            <polygon id="Fill-4" points="29.765 36.7969 33.281 29.7649 36.796 36.7969"></polygon>
            <polygon id="Fill-15" points="29.765 56.6396 33.281 49.6086 36.796 56.6396"></polygon>
            <polygon id="Fill-18" points="29.765 76.4834 33.281 69.4524 36.796 76.4834"></polygon>
            <polygon id="Fill-29" points="9.9213 16.9531 13.4383 9.9221 16.9533 16.9531"></polygon>
            <polygon id="Fill-30" points="23.3586 8.52651283e-14 19.8436 7.031 26.8736 7.031"></polygon>
            <polygon id="Fill-31" points="9.9223 36.7969 13.4383 29.7649 16.9533 36.7969"></polygon>
            <polygon id="Fill-32" points="19.8432 26.875 23.3592 19.844 26.8752 26.875"></polygon>
            <polygon id="Fill-33" points="3.5163 8.52651283e-14 0.0003 7.031 7.0313 7.031"></polygon>
            <polygon id="Fill-34" points="7.63833441e-14 26.8749 7.032 26.8749 3.516 19.8439"></polygon>
            <polygon id="Fill-35" points="9.9213 56.6396 13.4383 49.6086 16.9533 56.6396"></polygon>
            <polygon id="Fill-36" points="19.8432 46.7177 23.3592 39.6867 26.8752 46.7177"></polygon>
            <polygon id="Fill-37" points="9.9213 76.4834 13.4383 69.4514 16.9533 76.4834"></polygon>
            <polygon id="Fill-38" points="19.8432 66.5615 23.3592 59.5305 26.8742 66.5615"></polygon>
            <polygon id="Fill-39" points="7.63833441e-14 46.7181 7.032 46.7181 3.516 39.6861"></polygon>
            <polygon id="Fill-40" points="7.63833441e-14 66.5613 7.032 66.5613 3.516 59.5303"></polygon>
            <polygon id="Fill-44" points="19.8432 86.4052 23.3592 79.3742 26.8752 86.4052"></polygon>
            <polygon id="Fill-45" points="7.63833441e-14 86.4054 7.032 86.4054 3.516 79.3734"></polygon>
            <polygon id="Fill-87" points="29.765 136.0127 33.281 128.9817 36.796 136.0137"></polygon>
            <polygon id="Fill-90" points="29.765 155.8564 33.281 148.8254 36.796 155.8564"></polygon>
            <polygon id="Fill-104" points="9.9223 136.0127 13.4383 128.9817 16.9533 136.0127"></polygon>
            <polygon id="Fill-105" points="19.8432 126.0918 23.3592 119.0608 26.8752 126.0918"></polygon>
            <polygon id="Fill-106" points="9.9213 155.8564 13.4383 148.8254 16.9533 155.8564"></polygon>
            <polygon id="Fill-107" points="19.8432 145.9346 23.3592 138.9036 26.8752 145.9346"></polygon>
            <polygon id="Fill-108" points="7.63833441e-14 126.0918 7.032 126.0918 3.516 119.0598"></polygon>
            <polygon id="Fill-109" points="7.63833441e-14 145.935 7.032 145.935 3.516 138.903"></polygon>
            <polygon id="Fill-110" points="29.765 96.3261 33.281 89.2951 36.796 96.3261"></polygon>
            <polygon id="Fill-112" points="29.765 116.1699 33.281 109.1389 36.796 116.1699"></polygon>
            <polygon id="Fill-121" points="9.9223 96.3261 13.4383 89.2951 16.9533 96.3261"></polygon>
            <polygon id="Fill-122" points="9.9213 116.1699 13.4383 109.1389 16.9533 116.1699"></polygon>
            <polygon id="Fill-123" points="19.8432 106.248 23.3592 99.217 26.8752 106.248"></polygon>
            <polygon id="Fill-124" points="7.63833441e-14 106.2477 7.032 106.2477 3.516 99.2167"></polygon>
            <polygon id="Fill-125" points="19.8432 165.7782 26.8742 165.7782 23.3582 158.7472"></polygon>
            <polygon id="Fill-126" points="7.63833441e-14 165.7782 7.032 165.7782 3.516 158.7472"></polygon>
        </g>
        <g id="Group-Copy-8" transform="translate(361.000000, 321.000200)" fill="#000000">
            <polygon id="Fill-1" points="29.765 16.9531 33.281 9.9221 36.796 16.9531"></polygon>
            <polygon id="Fill-4" points="29.765 36.7969 33.281 29.7649 36.796 36.7969"></polygon>
            <polygon id="Fill-15" points="29.765 56.6396 33.281 49.6086 36.796 56.6396"></polygon>
            <polygon id="Fill-18" points="29.765 76.4834 33.281 69.4524 36.796 76.4834"></polygon>
            <polygon id="Fill-29" points="9.9213 16.9531 13.4383 9.9221 16.9533 16.9531"></polygon>
            <polygon id="Fill-30" points="23.3586 8.52651283e-14 19.8436 7.031 26.8736 7.031"></polygon>
            <polygon id="Fill-31" points="9.9223 36.7969 13.4383 29.7649 16.9533 36.7969"></polygon>
            <polygon id="Fill-32" points="19.8432 26.875 23.3592 19.844 26.8752 26.875"></polygon>
            <polygon id="Fill-33" points="3.5163 8.52651283e-14 0.0003 7.031 7.0313 7.031"></polygon>
            <polygon id="Fill-34" points="7.63833441e-14 26.8749 7.032 26.8749 3.516 19.8439"></polygon>
            <polygon id="Fill-35" points="9.9213 56.6396 13.4383 49.6086 16.9533 56.6396"></polygon>
            <polygon id="Fill-36" points="19.8432 46.7177 23.3592 39.6867 26.8752 46.7177"></polygon>
            <polygon id="Fill-37" points="9.9213 76.4834 13.4383 69.4514 16.9533 76.4834"></polygon>
            <polygon id="Fill-38" points="19.8432 66.5615 23.3592 59.5305 26.8742 66.5615"></polygon>
            <polygon id="Fill-39" points="7.63833441e-14 46.7181 7.032 46.7181 3.516 39.6861"></polygon>
            <polygon id="Fill-40" points="7.63833441e-14 66.5613 7.032 66.5613 3.516 59.5303"></polygon>
        </g>
    </g>
</svg>